<svg width="40" height="40" viewBox="0 0 40 40" fill="none" xmlns="http://www.w3.org/2000/svg">
<rect width="40" height="40" rx="20" fill="white" fill-opacity="0.1"/>
<path fill-rule="evenodd" clip-rule="evenodd" d="M21.5938 25.7457C21.5938 25.9848 21.7478 26.1974 21.9757 26.2713L24.3839 27.0525L25.1659 29.4552C25.2397 29.6826 25.4528 29.8368 25.6921 29.8368C25.9315 29.8368 26.1446 29.6828 26.2183 29.4552L27.0019 27.0525L29.4085 26.2713C29.6364 26.1974 29.7905 25.985 29.7905 25.7459C29.7905 25.5066 29.6364 25.2944 29.4085 25.2204L27.0019 24.4392L26.2183 22.0366C26.1446 21.809 25.9315 21.655 25.6921 21.655C25.4528 21.655 25.2397 21.8091 25.1659 22.0366L24.3839 24.4392L21.9757 25.2204C21.7478 25.2944 21.5938 25.5065 21.5938 25.7457ZM22.9052 21.8186H22.5774C22.397 21.8186 22.2495 21.9652 22.2495 22.1459C22.2495 22.3265 22.397 22.4732 22.5774 22.4732H22.9052V22.8004C22.9052 22.9811 23.0528 23.1277 23.2331 23.1277C23.4134 23.1277 23.561 22.9811 23.561 22.8004V22.4732H23.8888C24.0692 22.4732 24.2167 22.3265 24.2167 22.1459C24.2167 21.9652 24.0692 21.8186 23.8888 21.8186H23.561V21.4913C23.561 21.3107 23.4134 21.1641 23.2331 21.1641C23.0528 21.1641 22.9052 21.3107 22.9052 21.4913V21.8186Z" fill="url(#paint0_linear_19826_31425)"/>
<path d="M28.1511 28.3706H28.479V28.0433C28.479 27.8627 28.6265 27.7161 28.8069 27.7161C28.9872 27.7161 29.1347 27.8627 29.1347 28.0433V28.3706H29.4626C29.6429 28.3706 29.7905 28.5172 29.7905 28.6979C29.7905 28.8785 29.6429 29.0251 29.4626 29.0251H29.1347V29.3524C29.1347 29.5331 28.9872 29.6797 28.8069 29.6797C28.6265 29.6797 28.479 29.5331 28.479 29.3524V29.0251H28.1511C27.9708 29.0251 27.8233 28.8785 27.8233 28.6979C27.8233 28.5172 27.9708 28.3706 28.1511 28.3706Z" fill="url(#paint1_linear_19826_31425)"/>
<path d="M19.1814 19.7436C16.4952 19.7436 14.3096 17.5579 14.3096 14.8718C14.3096 12.1856 16.4952 10 19.1814 10C21.8675 10 24.0532 12.1856 24.0532 14.8718C24.0532 17.5579 21.8675 19.7436 19.1814 19.7436ZM19.1814 11.5385C17.3434 11.5385 15.8481 13.0338 15.8481 14.8718C15.8481 16.7097 17.3434 18.2051 19.1814 18.2051C21.0193 18.2051 22.5147 16.7097 22.5147 14.8718C22.5147 13.0338 21.0193 11.5385 19.1814 11.5385ZM18.8942 29.2308C18.8942 28.8062 18.5496 28.4615 18.125 28.4615H13.0275C12.3209 28.4615 11.7455 27.8862 11.7455 27.1795C11.7455 24.7754 13.7014 22.8205 16.1045 22.8205H18.1557C18.5804 22.8205 18.925 22.4759 18.925 22.0513C18.925 21.6267 18.5804 21.2821 18.1557 21.2821H16.1045C12.8532 21.2821 10.207 23.9272 10.207 27.1795C10.207 28.7354 11.4716 30 13.0275 30H18.125C18.5496 30 18.8942 29.6554 18.8942 29.2308Z" fill="#585C77"/>
<defs>
<linearGradient id="paint0_linear_19826_31425" x1="21.5938" y1="25.5004" x2="29.7905" y2="25.5004" gradientUnits="userSpaceOnUse">
<stop stop-color="#D445EC"/>
<stop offset="0.27" stop-color="#B02EFB"/>
<stop offset="0.48" stop-color="#8E2FFD"/>
<stop offset="0.76" stop-color="#5E3DFE"/>
<stop offset="1" stop-color="#5186E0"/>
</linearGradient>
<linearGradient id="paint1_linear_19826_31425" x1="21.5938" y1="25.5004" x2="29.7905" y2="25.5004" gradientUnits="userSpaceOnUse">
<stop stop-color="#D445EC"/>
<stop offset="0.27" stop-color="#B02EFB"/>
<stop offset="0.48" stop-color="#8E2FFD"/>
<stop offset="0.76" stop-color="#5E3DFE"/>
<stop offset="1" stop-color="#5186E0"/>
</linearGradient>
</defs>
</svg>
