<svg width="34" height="34" viewBox="0 0 34 34" fill="none" xmlns="http://www.w3.org/2000/svg">
<rect width="34" height="34" rx="17" fill="white" fill-opacity="0.1"/>
<path fill-rule="evenodd" clip-rule="evenodd" d="M18.4336 22.1743C18.4336 22.3894 18.5723 22.5807 18.7774 22.6473L20.9447 23.3504L21.6485 25.5128C21.7149 25.7175 21.9067 25.8562 22.1221 25.8562C22.3375 25.8562 22.5293 25.7176 22.5957 25.5128L23.301 23.3504L25.4669 22.6473C25.672 22.5807 25.8106 22.3896 25.8106 22.1744C25.8106 21.9591 25.672 21.7681 25.4669 21.7015L23.301 20.9984L22.5957 18.836C22.5293 18.6312 22.3375 18.4926 22.1221 18.4926C21.9067 18.4926 21.7149 18.6313 21.6485 18.836L20.9447 20.9984L18.7774 21.7015C18.5723 21.7681 18.4336 21.959 18.4336 22.1743ZM19.6139 18.6399H19.3188C19.1565 18.6399 19.0238 18.7718 19.0238 18.9344C19.0238 19.097 19.1565 19.229 19.3188 19.229H19.6139V19.5235C19.6139 19.6861 19.7467 19.8181 19.909 19.8181C20.0713 19.8181 20.2041 19.6861 20.2041 19.5235V19.229H20.4992C20.6615 19.229 20.7942 19.097 20.7942 18.9344C20.7942 18.7718 20.6615 18.6399 20.4992 18.6399H20.2041V18.3453C20.2041 18.1827 20.0713 18.0508 19.909 18.0508C19.7467 18.0508 19.6139 18.1827 19.6139 18.3453V18.6399Z" fill="#007AFF"/>
<path d="M24.3352 24.5367H24.6303V24.2421C24.6303 24.0795 24.7631 23.9476 24.9254 23.9476C25.0877 23.9476 25.2205 24.0795 25.2205 24.2421V24.5367H25.5156C25.6779 24.5367 25.8106 24.6686 25.8106 24.8312C25.8106 24.9938 25.6779 25.1258 25.5156 25.1258H25.2205V25.4203C25.2205 25.5829 25.0877 25.7148 24.9254 25.7148C24.7631 25.7148 24.6303 25.5829 24.6303 25.4203V25.1258H24.3352C24.1729 25.1258 24.0402 24.9938 24.0402 24.8312C24.0402 24.6686 24.1729 24.5367 24.3352 24.5367Z" fill="#007AFF"/>
<path d="M13.4971 18.2178H15.3438C15.69 18.218 15.9714 18.4994 15.9717 18.8457C15.9717 19.1922 15.6902 19.4744 15.3438 19.4746H13.4971C11.2988 19.4747 9.50977 21.2627 9.50977 23.4619C9.50997 24.1331 10.0563 24.6795 10.7275 24.6797H15.3154C15.6621 24.6797 15.9433 24.961 15.9434 25.3076C15.9434 25.6543 15.6621 25.9355 15.3154 25.9355H10.7275C9.36303 25.9353 8.25411 24.8264 8.25391 23.4619C8.25391 20.5704 10.6064 18.2178 13.4971 18.2178ZM16.2666 8.06445C18.6485 8.06458 20.5869 10.0028 20.5869 12.3848C20.5868 14.7667 18.6485 16.705 16.2666 16.7051C13.8846 16.7051 11.9464 14.7667 11.9463 12.3848C11.9463 10.0027 13.8846 8.06445 16.2666 8.06445ZM16.2666 9.32031C14.5769 9.32031 13.2021 10.6951 13.2021 12.3848C13.2022 14.0744 14.577 15.4492 16.2666 15.4492C17.9561 15.4491 19.331 14.0743 19.3311 12.3848C19.3311 10.6952 17.9562 9.32043 16.2666 9.32031Z" fill="#242424" stroke="white" stroke-width="0.128571"/>
</svg>
