<svg width="40" height="40" viewBox="0 0 40 40" fill="none" xmlns="http://www.w3.org/2000/svg">
<rect width="40" height="40" rx="20" fill="white" fill-opacity="0.1"/>
<g clip-path="url(#clip0_18471_27335)">
<path d="M12.7812 28.0001C12.6267 28.0001 12.4756 27.9543 12.3471 27.8685C12.2186 27.7826 12.1184 27.6606 12.0593 27.5178C12.0002 27.3751 11.9847 27.218 12.0148 27.0664C12.045 26.9148 12.1194 26.7756 12.2287 26.6664L26.6662 12.2289C26.8127 12.0823 27.0115 12 27.2187 12C27.4259 12 27.6247 12.0823 27.7712 12.2289C27.9177 12.3754 28.0001 12.5741 28.0001 12.7814C28.0001 12.9886 27.9177 13.1873 27.7712 13.3339L13.3337 27.7714C13.2612 27.844 13.1751 27.9016 13.0803 27.9408C12.9855 27.9801 12.8838 28.0002 12.7812 28.0001Z" fill="#585C77"/>
<path d="M27.2187 28.0001C27.1161 28.0002 27.0145 27.9801 26.9197 27.9408C26.8248 27.9016 26.7387 27.844 26.6662 27.7714L12.2287 13.3339C12.0822 13.1873 11.9999 12.9886 11.9999 12.7814C11.9999 12.5741 12.0822 12.3754 12.2287 12.2289C12.3753 12.0823 12.574 12 12.7812 12C12.9885 12 13.1872 12.0823 13.3337 12.2289L27.7712 26.6664C27.8805 26.7756 27.9549 26.9148 27.9851 27.0664C28.0153 27.218 27.9998 27.3751 27.9406 27.5178C27.8815 27.6606 27.7813 27.7826 27.6528 27.8685C27.5243 27.9543 27.3733 28.0001 27.2187 28.0001Z" fill="#585C77"/>
</g>
<defs>
<clipPath id="clip0_18471_27335">
<rect width="16" height="16" fill="white" transform="translate(12 12)"/>
</clipPath>
</defs>
</svg>
