<svg width="40" height="40" viewBox="0 0 40 40" fill="none" xmlns="http://www.w3.org/2000/svg">
<rect width="40" height="40" rx="20" fill="white" fill-opacity="0.1"/>
<g clip-path="url(#clip0_18469_17505)">
<path d="M16.3809 25.4551C17.5892 25.4551 18.5693 26.4342 18.5693 27.6426C18.5693 28.8509 17.5893 29.8311 16.3809 29.8311C15.1725 29.831 14.1934 28.851 14.1934 27.6426C14.1934 26.4343 15.1725 25.4551 16.3809 25.4551ZM16.3809 26.583C15.7955 26.583 15.3214 27.0572 15.3213 27.6426C15.3213 28.228 15.7955 28.7031 16.3809 28.7031C16.9663 28.7031 17.4405 28.228 17.4404 27.6426C17.4404 27.0572 16.9662 26.583 16.3809 26.583Z" fill="#585C77" stroke="#585C77" stroke-width="0.2"/>
<path d="M25.1953 25.4551C26.4037 25.4551 27.3837 26.4343 27.3838 27.6426C27.3838 28.8509 26.4037 29.8311 25.1953 29.8311C23.987 29.831 23.0078 28.851 23.0078 27.6426C23.0079 26.4343 23.987 25.4551 25.1953 25.4551ZM25.1953 26.583C24.61 26.583 24.1358 27.0572 24.1357 27.6426C24.1357 28.228 24.6099 28.7031 25.1953 28.7031C25.7807 28.7031 26.2549 28.228 26.2549 27.6426C26.2548 27.0572 25.7807 26.583 25.1953 26.583Z" fill="#585C77" stroke="#585C77" stroke-width="0.2"/>
<path d="M12.0195 10.1699C12.905 10.1793 13.6949 10.7096 14.0439 11.5117L14.1084 11.6758V11.6768L14.5039 12.8848L29.5352 13.0928H29.5439C29.669 13.1051 29.7876 13.1519 29.8867 13.2266L29.9795 13.3105L29.9814 13.3135L30.0215 13.3672C30.1029 13.4937 30.1209 13.6509 30.0713 13.7949L30.0723 13.7959L28.959 18.459C28.7167 19.4822 27.8953 20.2589 26.875 20.4531L26.668 20.4844L16.958 21.498L16.7979 21.8564C16.6735 22.1968 16.7134 22.5765 16.9053 22.8838C17.098 23.1929 17.4337 23.3844 17.7979 23.3936H26.8203C27.1315 23.3938 27.3836 23.6458 27.3838 23.957C27.3838 24.2684 27.1316 24.5213 26.8203 24.5215H17.792C17.0552 24.4993 16.3757 24.1186 15.9717 23.502C15.5644 22.8749 15.4826 22.0897 15.7529 21.3926L15.7549 21.3887L15.9707 20.8896L13.0371 12.042C12.9047 11.6594 12.5765 11.3841 12.1865 11.3145L12.0166 11.2979H10.4639C10.1524 11.2978 9.90039 11.0448 9.90039 10.7334C9.90046 10.422 10.1525 10.17 10.4639 10.1699H12.0195ZM16.96 20.3457L26.5312 19.3574H26.5332C27.1799 19.3061 27.7183 18.8383 27.8594 18.2051V18.2031L28.8271 14.2188L14.8711 14.0137L16.96 20.3457Z" fill="#585C77" stroke="#585C77" stroke-width="0.2"/>
</g>
<defs>
<clipPath id="clip0_18469_17505">
<rect width="20" height="20" fill="white" transform="translate(10 10)"/>
</clipPath>
</defs>
</svg>
