<svg width="121" height="120" viewBox="0 0 121 120" fill="none" xmlns="http://www.w3.org/2000/svg">
<rect x="0.5" width="120" height="120" rx="60" fill="url(#paint0_linear_19861_31602)"/>
<g clip-path="url(#clip0_19861_31602)">
<path d="M29.938 49.9531C29.3962 49.9531 28.957 50.3924 28.957 50.9341V69.8463C28.957 70.3881 29.3963 70.8273 29.938 70.8273C30.4797 70.8273 30.919 70.388 30.919 69.8463V50.9341C30.9191 50.3924 30.4798 49.9531 29.938 49.9531Z" fill="#C390FF"/>
<path d="M33.8788 81.6638H35.8485V65.9062H33.8788C29.5274 65.9062 26 69.4336 26 73.785C26 78.1242 29.5155 81.6638 33.8788 81.6638Z" fill="#8E2FFD"/>
<path d="M79.1806 81.6638H77.2109V65.9062H79.1806C83.5319 65.9062 87.0595 69.4336 87.0595 73.7851C87.0593 78.1242 83.5439 81.6638 79.1806 81.6638Z" fill="#8E2FFD"/>
<path d="M81.1525 73.7846C81.1525 84.0904 72.8023 92.4968 62.4402 92.4968H50.6211C40.2879 92.497 31.9102 84.1192 31.9102 73.7846C31.9102 60.2245 42.896 49.1641 56.5307 49.1641C61.955 49.1641 66.9803 50.922 71.056 53.9042C77.171 58.3777 81.1525 65.6044 81.1525 73.7846Z" fill="#9C49FD"/>
<path d="M71.056 53.9042H69.162C68.6414 53.9042 68.1418 54.1109 67.7742 54.4784L62.8352 59.4187C61.599 60.6547 59.4854 59.7784 59.4854 58.0308V55.866C59.4854 54.7817 58.6064 53.904 57.5233 53.904H55.5156C53.8139 53.904 52.239 53.3611 50.9533 52.4416C49.9016 51.6869 48.4196 52.1853 47.9867 53.4056C44.7586 62.4992 42.9602 78.2541 58.7242 92.497H50.6211C40.2879 92.497 31.9102 84.1192 31.9102 73.7846C31.9102 60.2245 42.896 49.1641 56.5307 49.1641C61.955 49.1641 66.9803 50.922 71.056 53.9042Z" fill="#8D38F0"/>
<path d="M75.2409 73.7864C75.2409 80.2951 69.9683 85.6042 63.4231 85.6042H49.6355C43.1073 85.6042 37.8164 80.3134 37.8164 73.7864C37.8164 68.557 41.2199 64.1033 45.9535 62.5534C47.111 62.174 48.3484 61.9688 49.6355 61.9688H63.4231C69.9501 61.9686 75.2409 67.2595 75.2409 73.7864Z" fill="#F6C3FF"/>
<path d="M52.4569 85.6056H49.6355C43.1073 85.6056 37.8164 80.3147 37.8164 73.7878C37.8164 68.5583 41.2199 64.1047 45.9535 62.5547C45.3256 69.3589 46.563 77.5143 52.4569 85.6056Z" fill="#F4B6FF"/>
<path d="M91 34.3199V44.317C91 48.0827 87.9471 51.1369 84.18 51.1369H69.1615C68.6408 51.1369 68.1413 51.3436 67.7736 51.7111L63.1289 56.3545C62.5115 56.9732 61.4547 56.5351 61.4547 55.6613V53.0988C61.4547 52.0145 60.5756 51.1368 59.4926 51.1368H57.4351C53.1278 51.1368 49.6367 47.6444 49.6367 43.3371V34.3199C49.6367 30.5528 52.6896 27.5 56.4554 27.5H84.18C87.9471 27.5 91 30.553 91 34.3199Z" fill="#F4B2FF"/>
<path d="M70.9235 51.137H69.1615C68.6408 51.137 68.1413 51.3437 67.7736 51.7112L63.1289 56.3547C62.5115 56.9733 61.4547 56.5352 61.4547 55.6614V53.099C61.4547 52.0146 60.5756 51.1369 59.4926 51.1369H57.4351C53.1278 51.1369 49.6367 47.6445 49.6367 43.3373V34.3199C49.6367 30.5528 52.6896 27.5 56.4554 27.5H65.733C63.885 30.9651 61.8368 43.4774 70.9235 51.137Z" fill="#EA9DF7"/>
<path d="M29.939 55.0732C31.5707 55.0732 32.8935 53.7504 32.8935 52.1186C32.8935 50.4869 31.5707 49.1641 29.939 49.1641C28.3072 49.1641 26.9844 50.4869 26.9844 52.1186C26.9844 53.7504 28.3072 55.0732 29.939 55.0732Z" fill="#8E2FFD"/>
<path d="M70.3179 42.2763C71.9496 42.2763 73.2724 40.9535 73.2724 39.3218C73.2724 37.69 71.9496 36.3672 70.3179 36.3672C68.6861 36.3672 67.3633 37.69 67.3633 39.3218C67.3633 40.9535 68.6861 42.2763 70.3179 42.2763Z" fill="#3A484A"/>
<path d="M82.1382 42.2763C83.7699 42.2763 85.0928 40.9535 85.0928 39.3218C85.0928 37.69 83.7699 36.3672 82.1382 36.3672C80.5064 36.3672 79.1836 37.69 79.1836 39.3218C79.1836 40.9535 80.5064 42.2763 82.1382 42.2763Z" fill="#3A484A"/>
<path d="M58.5015 42.2763C60.1332 42.2763 61.456 40.9535 61.456 39.3218C61.456 37.69 60.1332 36.3672 58.5015 36.3672C56.8697 36.3672 55.5469 37.69 55.5469 39.3218C55.5469 40.9535 56.8697 42.2763 58.5015 42.2763Z" fill="#3A484A"/>
<path d="M49.696 75.0868C49.6969 76.8445 47.9083 78.2702 45.7011 78.2713C43.4941 78.2724 41.704 76.8485 41.7031 75.0909C41.7022 73.3332 43.4908 71.9074 45.698 71.9063C47.905 71.9051 49.6951 73.3291 49.696 75.0868Z" fill="#FFA1AC"/>
<path d="M63.3633 75.0831C63.3642 76.8407 65.1541 78.2646 67.3613 78.2635C69.5684 78.2623 71.3569 76.8367 71.3561 75.079C71.3552 73.3213 69.5653 71.8973 67.3581 71.8984C65.1509 71.8996 63.3624 73.3253 63.3633 75.0831Z" fill="#FFA1AC"/>
<path d="M60.4481 73.6465C60.4468 71.2255 58.6929 70.9989 56.5294 71C54.3659 71.0011 52.6121 71.2294 52.6133 73.6504C52.6146 76.0714 54.3694 78.0331 56.5328 78.0319C58.6965 78.0309 60.4493 76.0675 60.4481 73.6465Z" fill="#3A484A"/>
<path d="M46.1255 72.6074C45.5839 72.6075 45.1448 72.1685 45.1445 71.6268C45.1438 70.0336 46.4325 68.7431 48.0262 68.7422C49.6147 68.7414 50.91 70.0328 50.9109 71.6239C50.9113 72.1657 50.4721 72.6051 49.9304 72.6054C49.3893 72.6058 48.9492 72.1675 48.9489 71.6249C48.9486 70.8017 47.9508 70.3988 47.376 70.9743C47.2022 71.1483 47.1065 71.3798 47.1066 71.6258C47.1068 72.1664 46.6691 72.6074 46.1255 72.6074Z" fill="#3A484A"/>
<path d="M63.1294 72.5996C62.5878 72.5996 62.1487 72.1607 62.1484 71.619C62.1477 70.0293 63.4404 68.7353 65.0303 68.7344C66.6235 68.7335 67.9141 70.0224 67.9149 71.6162C67.9152 72.158 67.4762 72.5974 66.9344 72.5977C66.3943 72.5979 65.9532 72.1607 65.953 71.6171C65.9527 71.1084 65.5409 70.6964 65.0318 70.6964C64.5253 70.6964 64.1104 71.1085 64.1106 71.6181C64.1108 72.1574 63.674 72.5996 63.1294 72.5996Z" fill="#3A484A"/>
</g>
<defs>
<linearGradient id="paint0_linear_19861_31602" x1="90.5" y1="90" x2="24.5" y2="40.5" gradientUnits="userSpaceOnUse">
<stop stop-color="#E9DFFB"/>
<stop offset="1" stop-color="#F5F7FF"/>
</linearGradient>
<clipPath id="clip0_19861_31602">
<rect width="65" height="65" fill="white" transform="translate(26 27.5)"/>
</clipPath>
</defs>
</svg>
