<svg width="120" height="120" viewBox="0 0 120 120" fill="none" xmlns="http://www.w3.org/2000/svg">
<rect width="120" height="120" rx="60" fill="url(#paint0_linear_19428_21128)"/>
<g clip-path="url(#clip0_19428_21128)">
<path d="M82.1335 67.828L87.528 46.0824L65.4749 43.1099L40.4492 46.0824L47.9538 66.9438L53.8467 70.9513H78.0085L82.1335 67.828Z" fill="#F4B2FF"/>
<path d="M82.1335 67.8285L83.0906 63.9708C82.7772 63.9286 82.4583 63.9048 82.1335 63.9048H55.8229C54.5584 63.9048 53.5046 63.1228 53.1386 61.9127L48.0709 45.1777L40.4492 46.0828L47.9533 66.9442L53.8467 70.9517H78.0085L82.1335 67.8285Z" fill="#EA9DF7"/>
<path d="M87.528 40.1372H40.4492V46.0827H87.528C89.17 46.0827 90.501 44.7517 90.501 43.1102C90.501 41.4682 89.17 40.1372 87.528 40.1372Z" fill="#C390FF"/>
<path d="M47.1004 41.9726C46.9094 41.3433 46.6833 40.7308 46.4235 40.1372H40.4492V46.0827H48.3446L47.1004 41.9726Z" fill="#B67CF9"/>
<path d="M82.1325 74.3105H55.822C52.9655 74.3105 50.2435 73.4109 47.9494 71.7089C45.6558 70.007 44.0059 67.6623 43.1782 64.9289L37.14 44.9888C36.3882 42.5058 34.1403 40.838 31.5461 40.838H28.7413C26.951 40.838 25.5 39.387 25.5 37.5967C25.5 35.8065 26.951 34.3555 28.7413 34.3555H31.5461C34.2112 34.3555 36.7512 35.195 38.8916 36.783C41.0319 38.3714 42.5717 40.5593 43.3444 43.1098L49.3821 63.0499C50.2479 65.9078 52.8356 67.8284 55.822 67.8284H82.1325C83.9227 67.8284 85.3738 69.2795 85.3738 71.0697C85.3738 72.8595 83.9227 74.3105 82.1325 74.3105Z" fill="#8E2FFD"/>
<path d="M62.451 79.0248C62.451 82.6851 59.4835 85.6527 55.8232 85.6527C52.1628 85.6527 49.1953 82.6851 49.1953 79.0248C49.1953 75.3645 52.1628 72.397 55.8232 72.397C59.4835 72.397 62.451 75.3645 62.451 79.0248Z" fill="#393F50"/>
<path d="M58.5235 79.0249C58.5235 80.5156 57.3149 81.7242 55.8242 81.7242C54.3335 81.7242 53.125 80.5156 53.125 79.0249C53.125 77.5342 54.3335 76.3257 55.8242 76.3257C57.3149 76.3257 58.5235 77.5342 58.5235 79.0249Z" fill="#E5E8EC"/>
<path d="M83.1893 79.0248C83.1893 82.6851 80.2218 85.6527 76.5614 85.6527C72.9011 85.6527 69.9336 82.6851 69.9336 79.0248C69.9336 75.3645 72.9011 72.397 76.5614 72.397C80.2218 72.397 83.1893 75.3645 83.1893 79.0248Z" fill="#393F50"/>
<path d="M79.2618 79.0249C79.2618 80.5156 78.0532 81.7242 76.5625 81.7242C75.0718 81.7242 73.8633 80.5156 73.8633 79.0249C73.8633 77.5342 75.0718 76.3257 76.5625 76.3257C78.0532 76.3257 79.2618 77.5342 79.2618 79.0249Z" fill="#E5E8EC"/>
</g>
<defs>
<linearGradient id="paint0_linear_19428_21128" x1="90" y1="90" x2="24" y2="40.5" gradientUnits="userSpaceOnUse">
<stop stop-color="#E9DFFB"/>
<stop offset="1" stop-color="#F5F7FF"/>
</linearGradient>
<clipPath id="clip0_19428_21128">
<rect width="65" height="65" fill="white" transform="translate(25.5 27.5)"/>
</clipPath>
</defs>
</svg>
