<svg width="121" height="120" viewBox="0 0 121 120" fill="none" xmlns="http://www.w3.org/2000/svg">
<rect x="0.5" width="120" height="120" rx="60" fill="url(#paint0_linear_19798_33911)"/>
<g clip-path="url(#clip0_19798_33911)">
<path d="M31.9102 54.0938H85.0911V87.5787H31.9102V54.0938Z" fill="#F4B2FF"/>
<path d="M57.5157 87.5787H31.9102V54.0938H52.9547C51.5904 56.1303 39.8105 74.8034 57.5157 87.5787Z" fill="#EA9DF7"/>
<path d="M90.9987 51.1323V55.4578C90.9987 58.495 89.0289 60.9816 85.4764 60.9802C82.1357 60.9802 80.1658 58.028 80.1658 55.0719L79.5117 53.1587L80.1658 51.1321L85.5822 49.5625L90.9987 51.1323Z" fill="#C390FF"/>
<path d="M80.9731 43.2532L80.1661 51.1325L74.7483 54.2718L69.3319 51.1325L67.9872 46.9863L66.7773 43.2532L67.362 35.375H75.2414L79.4074 41.1002L80.9731 43.2532Z" fill="#BF88FE"/>
<path d="M90.9997 51.1325H80.1668L75.2422 35.375H78.4128C79.2683 35.375 80.1027 35.5149 80.8888 35.7766C82.7685 36.4018 84.376 37.7281 85.3374 39.5306L90.9997 51.1325Z" fill="#CA9CFF"/>
<path d="M69.3344 51.1364L70.1193 53.0962L69.3344 55.0761C69.3344 58.0675 67.3646 60.9869 63.918 60.9857C60.4713 60.9857 58.5015 58.0675 58.5015 55.0761L57.5859 53.0294L58.5015 51.1364L63.7196 50.3516L69.3344 51.1364Z" fill="#C390FF"/>
<path d="M80.1663 51.1328V55.0725C80.1663 58.0639 78.1965 60.9834 74.7499 60.9821C71.302 60.9821 69.332 58.0639 69.332 55.0725V51.1328H80.1663Z" fill="#B67CF9"/>
<path d="M60.1996 43.2532L59.3938 46.9863L58.4992 51.1325L53.0827 54.2718L47.6662 51.1325L46.8042 46.9705L46.0352 43.2545L49.6362 35.375H58.4992L60.1996 43.2532Z" fill="#BF88FE"/>
<path d="M69.3329 51.1325H58.5V35.375H67.363L69.3329 51.1325Z" fill="#CA9CFF"/>
<path d="M47.6681 51.1343L48.7144 53.0997L47.6681 55.0741C47.6681 58.0655 45.6983 60.9849 42.2502 60.9836C38.8037 60.9836 36.8338 58.0655 36.8338 55.0741L36.1797 53.2944L36.8338 51.1343L42.2508 50.2188L47.6681 51.1343Z" fill="#C390FF"/>
<path d="M58.5009 51.1328V55.0725C58.5009 58.0639 56.5311 60.9834 53.0844 60.9821C49.6379 60.9821 47.668 58.0639 47.668 55.0725V51.1328H58.5009Z" fill="#B67CF9"/>
<path d="M41.7575 35.375L41.2238 44.1975L40.7818 44.896L36.8329 51.1325L31.024 52.3098L26 51.1325L31.6622 39.5306C32.5805 37.8092 34.086 36.5221 35.857 35.8655C36.7164 35.5464 37.6384 35.375 38.5868 35.375H41.7575Z" fill="#BF88FE"/>
<path d="M47.6662 51.1325H36.832L41.7567 35.375H49.6361L47.6662 51.1325Z" fill="#CA9CFF"/>
<path d="M36.8329 51.1328V55.0725C36.8329 58.0287 34.8631 60.9808 31.5223 60.9808C27.9698 60.9821 26 58.1098 26 55.0725V51.1328H36.8329Z" fill="#B67CF9"/>
<path d="M91 89.5485C91 91.1757 89.6816 92.5033 88.0452 92.5033H28.9548C27.3225 92.5033 26 91.1808 26 89.5485C26 87.9213 27.3184 86.5938 28.9547 86.5938H56.2213L57.974 87.4963L59.9961 86.5938H88.045C89.6775 86.5938 91 87.9174 91 89.5485Z" fill="#8E2FFD"/>
<path d="M60.8884 92.5033H28.9548C27.3225 92.5033 26 91.1808 26 89.5485C26 87.9213 27.3184 86.5938 28.9547 86.5938H59.9963C59.6049 86.9844 57.6197 90.2536 60.8884 92.5033Z" fill="#8E2FFD"/>
<path d="M79.1808 70.8146V76.7542C79.1808 78.9216 77.4241 80.6782 75.2568 80.6782H41.7404C39.5731 80.6782 37.8164 78.9216 37.8164 76.7542V70.8146C37.8164 68.6473 39.5731 66.8906 41.7404 66.8906H75.2568C77.4241 66.8905 79.1808 68.6473 79.1808 70.8146Z" fill="#F6C3FF"/>
<path d="M50.8586 80.6782H41.7404C39.5731 80.6782 37.8164 78.9216 37.8164 76.7542V70.8146C37.8164 68.6473 39.5731 66.8906 41.7404 66.8906H48.0712C47.4918 71.1795 47.9508 76.0414 50.8586 80.6782Z" fill="#F6C3FF"/>
<path d="M50.3325 74.9691C49.7907 74.9691 49.3516 74.5298 49.3516 73.9881V72.4185C49.3516 71.8766 49.7907 71.4375 50.3325 71.4375C50.8744 71.4375 51.3135 71.8768 51.3135 72.4185V73.9881C51.3136 74.53 50.8744 74.9691 50.3325 74.9691Z" fill="#495560"/>
<path d="M66.6685 74.9691C66.1266 74.9691 65.6875 74.5298 65.6875 73.9881V72.4185C65.6875 71.8766 66.1266 71.4375 66.6685 71.4375C67.2103 71.4375 67.6494 71.8768 67.6494 72.4185V73.9881C67.6494 74.53 67.2103 74.9691 66.6685 74.9691Z" fill="#495560"/>
<path d="M58.5023 72.9631C59.6111 72.9631 60.6657 73.4434 61.3953 74.2808C61.7513 74.6893 61.7086 75.309 61.3001 75.6648C60.8917 76.0207 60.2719 75.9783 59.916 75.5697C59.5591 75.1601 59.0438 74.9251 58.5022 74.9251C57.9606 74.9251 57.4453 75.1601 57.0883 75.5697C56.7326 75.9783 56.1128 76.0207 55.7043 75.6648C55.2957 75.3089 55.2531 74.6892 55.609 74.2808C56.3389 73.4434 57.3935 72.9631 58.5023 72.9631Z" fill="#495560"/>
</g>
<defs>
<linearGradient id="paint0_linear_19798_33911" x1="90.5" y1="90" x2="24.5" y2="40.5" gradientUnits="userSpaceOnUse">
<stop stop-color="#E9DFFB"/>
<stop offset="1" stop-color="#F5F7FF"/>
</linearGradient>
<clipPath id="clip0_19798_33911">
<rect width="65" height="65" fill="white" transform="translate(26 27.5)"/>
</clipPath>
</defs>
</svg>
