<svg width="14" height="13" viewBox="0 0 14 13" fill="none" xmlns="http://www.w3.org/2000/svg">
<g clip-path="url(#clip0_19428_21265)">
<path d="M2.02716 7.14265C2.68317 7.14265 3.25645 6.8412 3.61696 6.36249C3.97157 6.8412 4.54485 7.14265 5.20086 7.14265C5.86279 7.14265 6.43609 6.8412 6.79067 6.36249C7.14525 6.8412 7.71855 7.14265 8.38051 7.14265C9.04241 7.14265 9.60977 6.8412 9.97029 6.36249C10.3249 6.8412 10.8982 7.14265 11.5542 7.14265C12.6889 7.14265 13.5813 6.25023 13.5813 5.1273V5.02682C13.5813 4.79633 13.5223 4.58948 13.404 4.38854L11.8378 1.71128V1.22074C11.8378 0.470162 11.3769 0.0209961 10.6145 0.0209961H2.97277C2.21036 0.0209961 1.74347 0.470162 1.74347 1.22074V1.71128L0.177302 4.38854C0.0591007 4.58948 0 4.79633 0 5.02682V5.1273C0 6.25023 0.892421 7.14265 2.02716 7.14265ZM2.63589 1.52806V1.38622C2.63589 1.09072 2.80728 0.913417 3.09688 0.913417H10.4845C10.774 0.913417 10.9454 1.09072 10.9454 1.38622V1.52806H2.63589ZM1.02244 4.67813L2.30493 2.42048H11.2291L12.5471 4.67813H1.02244ZM0.886509 5.51146H3.1678C3.03778 5.99017 2.63589 6.3093 2.02716 6.3093C1.41842 6.3093 1.01653 5.99017 0.886509 5.51146ZM4.06613 5.51146H6.3415C6.2115 5.99017 5.8096 6.3093 5.20086 6.3093C4.59804 6.3093 4.19024 5.99017 4.06613 5.51146ZM7.23985 5.51146H9.52111C9.39112 5.99017 8.98921 6.3093 8.38051 6.3093C7.77175 6.3093 7.36984 5.99017 7.23985 5.51146ZM10.4195 5.51146H12.6949C12.5648 5.99017 12.163 6.3093 11.5542 6.3093C10.9514 6.3093 10.5436 5.99017 10.4195 5.51146ZM2.3463 12.9758H11.2351C12.0743 12.9758 12.5648 12.4971 12.5648 11.6697V6.65208L11.6133 6.68754V11.4275C11.6133 11.8116 11.4123 12.0244 11.0341 12.0244H2.55315C2.17491 12.0244 1.96805 11.8116 1.96805 11.4275V6.68167L1.01653 6.66981V11.6697C1.01653 12.4971 1.50707 12.9758 2.3463 12.9758ZM2.90776 12.5858H6.3179V8.70882C6.3179 8.43691 6.14058 8.25965 5.86871 8.25965H3.36283C3.09097 8.25965 2.90776 8.43691 2.90776 8.70882V12.5858ZM7.42897 8.39558V10.0622C7.42897 10.34 7.60629 10.5114 7.88401 10.5114H10.2835C10.5554 10.5114 10.7268 10.34 10.7268 10.0622V8.39558C10.7268 8.11779 10.5554 7.9464 10.2835 7.9464H7.88401C7.60629 7.9464 7.42897 8.11779 7.42897 8.39558Z" fill="#8E2FFD" fill-opacity="0.85"/>
</g>
<defs>
<clipPath id="clip0_19428_21265">
<rect width="13.8" height="12.9608" fill="white" transform="translate(0 0.0195312)"/>
</clipPath>
</defs>
</svg>
