<svg width="82" height="24" viewBox="0 0 82 24" fill="none" xmlns="http://www.w3.org/2000/svg">
<path d="M21.7866 5.47398C21.5845 5.83493 21.0156 5.96184 20.649 6.1438C19.2372 6.74736 18.2582 7.55299 17.6114 8.88967C17.3286 9.43818 16.8348 11.234 16.1389 10.0187C15.0099 7.49234 14.9925 7.06216 12.3016 6.0515C11.9928 5.91272 11.5191 5.71362 11.502 5.37575C11.5626 4.88129 12.4085 4.71647 12.81 4.52693C14.3286 3.96985 15.068 3.36035 15.6626 1.84765C15.8277 1.36042 16.0621 0.899478 16.3585 0.479004C17.0428 -0.193783 17.3833 1.26716 17.6144 1.70887C17.8441 2.37377 18.2098 2.98349 18.6883 3.49912C19.2774 4.04764 20.0626 4.30772 20.7904 4.61066C21.1454 4.77548 21.8934 5.00062 21.7866 5.46244L21.7807 5.47694L21.7866 5.47398Z" fill="url(#paint0_linear_18469_17495)"/>
<path d="M6.34999 15.7354C6.56063 15.5594 6.7426 15.8739 6.82336 16.0532C6.97731 16.5193 7.19948 16.9601 7.48263 17.3612C7.78871 17.6836 8.16958 17.9256 8.59151 18.0656C9.27287 18.3343 9.56165 18.593 8.74448 18.9751C7.95356 19.3442 7.30976 19.9686 6.91663 20.7479C6.76665 21.0251 6.49503 21.5766 6.18023 21.1493C5.83675 20.6931 5.64029 20.0695 5.21604 19.6624C4.85314 19.3682 4.44176 19.1395 4.00035 18.9866C3.85597 18.9207 3.6394 18.7845 3.65951 18.6431C3.68852 18.4453 3.97728 18.3168 4.15396 18.2186C5.02882 17.7683 5.66403 17.286 6.01048 16.3792C6.07903 16.1484 6.1909 15.9329 6.34011 15.744L6.35164 15.7324L6.34999 15.7354Z" fill="url(#paint1_linear_18469_17495)"/>
<path d="M24.9632 12.4831C24.7857 12.6303 24.5833 12.7448 24.3656 12.821C23.0431 13.2686 22.7504 15.7287 22.1798 14.7556C21.7065 13.6728 21.4754 13.47 20.4476 12.9337C19.5698 12.492 19.4916 12.2695 20.4937 11.955C21.2848 11.6778 21.5245 11.1408 21.868 10.4334C22.0987 9.91655 22.4139 9.27574 22.7834 10.1368C22.9659 10.6989 23.3098 11.195 23.7723 11.5631C23.9756 11.7095 24.1956 11.8312 24.4276 11.9257C24.6326 12.0355 25.1726 12.1798 24.982 12.4712L24.9735 12.4828L24.9632 12.4831Z" fill="url(#paint2_linear_18469_17495)"/>
<path d="M2.76895 1.87891L0 4.64785L19.053 23.7008L21.8219 20.9319L2.76895 1.87891ZM19.0447 22.8813L16.2817 20.118L18.2421 18.1576L21.0051 20.9206L19.0447 22.8813Z" fill="url(#paint3_linear_18469_17495)"/>
<path d="M45.0188 10.6839V7.89189H34.7227V10.9147H40.5378L34.7227 17.8551V20.7484H45.0449V17.7253H39.1546L45.0188 10.6839ZM81.0553 11.0795C80.9457 10.3661 80.6933 9.68223 80.3133 9.06869C79.9761 8.55957 79.487 8.16962 78.9156 7.9542C78.2051 7.70327 77.4543 7.58581 76.7011 7.60774C76.2726 7.61088 75.8464 7.67108 75.4337 7.78674C75.0114 7.90211 74.5968 8.0439 74.1923 8.2113C73.8461 8.35018 73.512 8.51721 73.1932 8.7107V7.89058H69.786V20.7464H73.1932V11.2459C73.4277 11.1239 73.6721 11.0215 73.9236 10.94C74.2322 10.8337 74.549 10.7526 74.8707 10.6974C75.188 10.64 75.5097 10.61 75.8322 10.6078C76.2879 10.5768 76.7404 10.7032 77.1142 10.9657C77.4422 11.2728 77.6509 11.6861 77.7032 12.1323C77.8193 12.8393 77.8705 13.5554 77.8562 14.2717V20.751H81.2893V14.0923C81.3026 13.0846 81.2253 12.0777 81.0586 11.0838L81.0553 11.0795ZM63.2032 20.748H66.7372V3.25391H63.2032V20.748ZM50.6807 3.25391L46.2237 20.748H49.731L50.652 17.214H56.772L57.7451 20.748H61.2791L56.8482 3.25391H50.6737H50.6807ZM51.2176 14.3702L53.2156 6.12406H54.2895L56.2614 14.3702H51.215H51.2176Z" fill="url(#paint4_linear_18469_17495)"/>
<defs>
<linearGradient id="paint0_linear_18469_17495" x1="11.502" y1="5.36852" x2="21.7969" y2="5.36852" gradientUnits="userSpaceOnUse">
<stop stop-color="#D445EC"/>
<stop offset="0.27" stop-color="#B02EFB"/>
<stop offset="0.48" stop-color="#8E2FFD"/>
<stop offset="0.76" stop-color="#5E3DFE"/>
<stop offset="1" stop-color="#5186E0"/>
</linearGradient>
<linearGradient id="paint1_linear_18469_17495" x1="3.6582" y1="18.4949" x2="9.24188" y2="18.4949" gradientUnits="userSpaceOnUse">
<stop stop-color="#D445EC"/>
<stop offset="0.27" stop-color="#B02EFB"/>
<stop offset="0.48" stop-color="#8E2FFD"/>
<stop offset="0.76" stop-color="#5E3DFE"/>
<stop offset="1" stop-color="#5186E0"/>
</linearGradient>
<linearGradient id="paint2_linear_18469_17495" x1="19.7656" y1="12.3481" x2="25.0168" y2="12.3481" gradientUnits="userSpaceOnUse">
<stop stop-color="#D445EC"/>
<stop offset="0.27" stop-color="#B02EFB"/>
<stop offset="0.48" stop-color="#8E2FFD"/>
<stop offset="0.76" stop-color="#5E3DFE"/>
<stop offset="1" stop-color="#5186E0"/>
</linearGradient>
<linearGradient id="paint3_linear_18469_17495" x1="0" y1="12.7899" x2="21.8219" y2="12.7899" gradientUnits="userSpaceOnUse">
<stop stop-color="#D445EC"/>
<stop offset="0.27" stop-color="#B02EFB"/>
<stop offset="0.48" stop-color="#8E2FFD"/>
<stop offset="0.76" stop-color="#5E3DFE"/>
<stop offset="1" stop-color="#5186E0"/>
</linearGradient>
<linearGradient id="paint4_linear_18469_17495" x1="34.7227" y1="12.0024" x2="81.2908" y2="12.0024" gradientUnits="userSpaceOnUse">
<stop stop-color="#D445EC"/>
<stop offset="0.27" stop-color="#B02EFB"/>
<stop offset="0.48" stop-color="#8E2FFD"/>
<stop offset="0.76" stop-color="#5E3DFE"/>
<stop offset="1" stop-color="#5186E0"/>
</linearGradient>
</defs>
</svg>
