<svg width="82" height="24" viewBox="0 0 82 24" fill="none" xmlns="http://www.w3.org/2000/svg">
<path d="M21.7876 5.47398C21.5855 5.83493 21.0165 5.96184 20.65 6.1438C19.2382 6.74736 18.2591 7.55299 17.6124 8.88967C17.3296 9.43818 16.8358 11.234 16.1399 10.0187C15.0109 7.49234 14.9934 7.06216 12.3026 6.0515C11.9937 5.91272 11.5201 5.71362 11.5029 5.37575C11.5636 4.88129 12.4094 4.71647 12.8109 4.52693C14.3296 3.96985 15.0689 3.36035 15.6636 1.84765C15.8287 1.36042 16.063 0.899478 16.3594 0.479004C17.0438 -0.193783 17.3843 1.26716 17.6154 1.70887C17.845 2.37377 18.2108 2.98349 18.6893 3.49912C19.2784 4.04764 20.0636 4.30772 20.7914 4.61066C21.1464 4.77548 21.8944 5.00062 21.7876 5.46244L21.7816 5.47694L21.7876 5.47398Z" fill="url(#paint0_linear_18469_17495)"/>
<path d="M6.34906 15.7354C6.5597 15.5594 6.74167 15.8739 6.82243 16.0532C6.97638 16.5193 7.19855 16.9601 7.4817 17.3612C7.78778 17.6836 8.16864 17.9256 8.59058 18.0656C9.27194 18.3343 9.56072 18.593 8.74355 18.9751C7.95263 19.3442 7.30883 19.9686 6.9157 20.7479C6.76572 21.0251 6.4941 21.5766 6.17929 21.1493C5.83581 20.6931 5.63936 20.0695 5.21511 19.6624C4.85221 19.3682 4.44083 19.1395 3.99942 18.9866C3.85504 18.9207 3.63847 18.7845 3.65858 18.6431C3.68759 18.4453 3.97635 18.3168 4.15303 18.2186C5.02789 17.7683 5.6631 17.286 6.00955 16.3792C6.07809 16.1484 6.18997 15.9329 6.33918 15.744L6.35071 15.7324L6.34906 15.7354Z" fill="url(#paint1_linear_18469_17495)"/>
<path d="M24.9636 12.4831C24.7861 12.6303 24.5837 12.7448 24.366 12.821C23.0435 13.2686 22.7508 15.7287 22.1802 14.7556C21.7068 13.6728 21.4757 13.47 20.4479 12.9337C19.5701 12.492 19.492 12.2695 20.4941 11.955C21.2852 11.6778 21.5248 11.1408 21.8683 10.4334C22.0991 9.91655 22.4142 9.27574 22.7837 10.1368C22.9663 10.6989 23.3102 11.195 23.7726 11.5631C23.9759 11.7095 24.1959 11.8312 24.428 11.9257C24.633 12.0355 25.1729 12.1798 24.9824 12.4712L24.9738 12.4828L24.9636 12.4831Z" fill="url(#paint2_linear_18469_17495)"/>
<path d="M2.76889 1.87891L-6.10352e-05 4.64785L19.0529 23.7008L21.8218 20.9319L2.76889 1.87891ZM19.0447 22.8813L16.2816 20.118L18.242 18.1576L21.005 20.9206L19.0447 22.8813Z" fill="url(#paint3_linear_18469_17495)"/>
<path d="M45.0181 10.6839V7.89189H34.7219V10.9147H40.537L34.7219 17.8551V20.7484H45.0441V17.7253H39.1538L45.0181 10.6839ZM81.0545 11.0795C80.9449 10.3661 80.6925 9.68223 80.3125 9.06869C79.9753 8.55957 79.4862 8.16962 78.9148 7.9542C78.2043 7.70327 77.4535 7.58581 76.7003 7.60774C76.2718 7.61088 75.8456 7.67108 75.4329 7.78674C75.0106 7.90211 74.596 8.0439 74.1915 8.2113C73.8453 8.35018 73.5112 8.51721 73.1924 8.7107V7.89058H69.7852V20.7464H73.1924V11.2459C73.4269 11.1239 73.6713 11.0215 73.9228 10.94C74.2314 10.8337 74.5482 10.7526 74.8699 10.6974C75.1872 10.64 75.5089 10.61 75.8314 10.6078C76.2871 10.5768 76.7396 10.7032 77.1134 10.9657C77.4414 11.2728 77.6501 11.6861 77.7024 12.1323C77.8185 12.8393 77.8697 13.5554 77.8554 14.2717V20.751H81.2885V14.0923C81.3018 13.0846 81.2246 12.0777 81.0578 11.0838L81.0545 11.0795ZM63.2024 20.748H66.7364V3.25391H63.2024V20.748ZM50.6799 3.25391L46.2229 20.748H49.7302L50.6512 17.214H56.7712L57.7443 20.748H61.2783L56.8474 3.25391H50.6729H50.6799ZM51.2169 14.3702L53.2148 6.12406H54.2887L56.2606 14.3702H51.2142H51.2169Z" fill="url(#paint4_linear_18469_17495)"/>
<defs>
<linearGradient id="paint0_linear_18469_17495" x1="11.5029" y1="5.36852" x2="21.7979" y2="5.36852" gradientUnits="userSpaceOnUse">
<stop stop-color="#D445EC"/>
<stop offset="0.27" stop-color="#B02EFB"/>
<stop offset="0.48" stop-color="#8E2FFD"/>
<stop offset="0.76" stop-color="#5E3DFE"/>
<stop offset="1" stop-color="#5186E0"/>
</linearGradient>
<linearGradient id="paint1_linear_18469_17495" x1="3.65727" y1="18.4949" x2="9.24095" y2="18.4949" gradientUnits="userSpaceOnUse">
<stop stop-color="#D445EC"/>
<stop offset="0.27" stop-color="#B02EFB"/>
<stop offset="0.48" stop-color="#8E2FFD"/>
<stop offset="0.76" stop-color="#5E3DFE"/>
<stop offset="1" stop-color="#5186E0"/>
</linearGradient>
<linearGradient id="paint2_linear_18469_17495" x1="19.766" y1="12.3481" x2="25.0172" y2="12.3481" gradientUnits="userSpaceOnUse">
<stop stop-color="#D445EC"/>
<stop offset="0.27" stop-color="#B02EFB"/>
<stop offset="0.48" stop-color="#8E2FFD"/>
<stop offset="0.76" stop-color="#5E3DFE"/>
<stop offset="1" stop-color="#5186E0"/>
</linearGradient>
<linearGradient id="paint3_linear_18469_17495" x1="-6.10352e-05" y1="12.7899" x2="21.8218" y2="12.7899" gradientUnits="userSpaceOnUse">
<stop stop-color="#D445EC"/>
<stop offset="0.27" stop-color="#B02EFB"/>
<stop offset="0.48" stop-color="#8E2FFD"/>
<stop offset="0.76" stop-color="#5E3DFE"/>
<stop offset="1" stop-color="#5186E0"/>
</linearGradient>
<linearGradient id="paint4_linear_18469_17495" x1="34.7219" y1="12.0024" x2="81.29" y2="12.0024" gradientUnits="userSpaceOnUse">
<stop stop-color="#D445EC"/>
<stop offset="0.27" stop-color="#B02EFB"/>
<stop offset="0.48" stop-color="#8E2FFD"/>
<stop offset="0.76" stop-color="#5E3DFE"/>
<stop offset="1" stop-color="#5186E0"/>
</linearGradient>
</defs>
</svg>
