<svg width="40" height="40" viewBox="0 0 40 40" fill="none" xmlns="http://www.w3.org/2000/svg">
<rect width="40" height="40" rx="20" fill="white" fill-opacity="0.1"/>
<g clip-path="url(#clip0_18471_27341)">
<path d="M20.0455 10C20.0401 10.0054 20.0294 10.0054 20.0134 10.0054C14.5905 10.0054 10.1803 14.4155 10.1803 19.8384C10.1803 22.0515 10.9359 24.2003 12.3184 25.9311L10.8877 29.2534C10.7698 29.5267 10.8984 29.8429 11.1663 29.9554C11.2628 29.9983 11.3699 30.009 11.4718 29.9929L16.7178 29.0712C17.7681 29.4517 18.872 29.6446 19.9866 29.6393C25.4095 29.6393 29.8196 25.2291 29.8196 19.8062C29.8303 14.3994 25.4523 10.0054 20.0455 10ZM19.9919 28.5729C18.9577 28.5729 17.9342 28.3853 16.9643 28.021C16.8732 27.9835 16.7768 27.9781 16.6803 27.9942L12.2648 28.7658L13.433 26.049C13.5134 25.8614 13.4812 25.6417 13.3473 25.4863C12.7149 24.7522 12.2112 23.9163 11.8576 23.0107C11.461 21.9979 11.2574 20.9208 11.2574 19.833C11.2574 14.9996 15.1906 11.0717 20.0187 11.0717C24.8361 11.061 28.7479 14.9567 28.7532 19.7741C28.7532 19.7848 28.7532 19.7955 28.7532 19.8062C28.7532 24.645 24.82 28.5729 19.9919 28.5729Z" fill="#585C77"/>
<path d="M19.574 17.8633H16.6804C16.3857 17.8633 16.1445 18.1044 16.1445 18.3991C16.1445 18.6939 16.3857 18.935 16.6804 18.935H19.574C19.8688 18.935 20.1099 18.6939 20.1099 18.3991C20.1099 18.1044 19.8688 17.8633 19.574 17.8633Z" fill="#585C77"/>
<path d="M23.3251 20.543H16.6804C16.3857 20.543 16.1445 20.7841 16.1445 21.0788C16.1445 21.3736 16.3857 21.6147 16.6804 21.6147H23.3251C23.6198 21.6147 23.8609 21.3736 23.8609 21.0788C23.8609 20.7841 23.6198 20.543 23.3251 20.543Z" fill="#585C77"/>
</g>
<defs>
<clipPath id="clip0_18471_27341">
<rect width="20" height="20" fill="white" transform="translate(10 10)"/>
</clipPath>
</defs>
</svg>
