<svg width="296" height="167" viewBox="0 0 296 167" fill="none" xmlns="http://www.w3.org/2000/svg">
<g filter="url(#filter0_f_19717_29052)">
<rect x="79.7793" y="15.4375" width="136.151" height="136.151" rx="68.0756" fill="url(#paint0_linear_19717_29052)" fill-opacity="0.1"/>
</g>
<circle cx="147.856" cy="83.518" r="52.9477" fill="url(#paint1_linear_19717_29052)"/>
<path d="M135.623 97.8835V95.0473H125.164V98.1179H131.071L125.164 105.168V108.107H135.65V105.036H129.666L135.623 97.8835ZM172.23 98.2853C172.118 97.5607 171.862 96.866 171.476 96.2427C171.133 95.7255 170.637 95.3294 170.056 95.1106C169.335 94.8557 168.572 94.7364 167.807 94.7587C167.371 94.7618 166.938 94.823 166.519 94.9405C166.09 95.0577 165.669 95.2017 165.258 95.3718C164.907 95.5128 164.567 95.6825 164.243 95.8791V95.046H160.782V108.105H164.243V98.4544C164.482 98.3304 164.73 98.2265 164.985 98.1437C165.299 98.0357 165.621 97.9533 165.947 97.8972C166.27 97.8389 166.596 97.8084 166.924 97.8061C167.387 97.7747 167.847 97.9031 168.226 98.1698C168.56 98.4817 168.771 98.9015 168.825 99.3548C168.943 100.073 168.995 100.8 168.98 101.528V108.11H172.468V101.346C172.481 100.322 172.403 99.2993 172.233 98.2897L172.23 98.2853ZM154.095 108.107H157.685V90.3359H154.095V108.107ZM141.375 90.3359L136.847 108.107H140.41L141.345 104.517H147.562L148.551 108.107H152.141L147.64 90.3359H141.368H141.375ZM141.92 101.628L143.95 93.2515H145.041L147.044 101.628H141.917H141.92Z" fill="white"/>
<path d="M157.723 64.5636C157.517 64.9302 156.94 65.0592 156.567 65.244C155.133 65.8571 154.139 66.6755 153.482 68.0333C153.194 68.5905 152.693 70.4148 151.986 69.1802C150.839 66.6139 150.821 66.1769 148.088 65.1502C147.774 65.0093 147.293 64.807 147.275 64.4638C147.337 63.9615 148.196 63.7941 148.604 63.6016C150.147 63.0357 150.898 62.4165 151.502 60.8799C151.67 60.3849 151.908 59.9167 152.209 59.4896C152.904 58.8061 153.25 60.2902 153.485 60.7389C153.718 61.4143 154.089 62.0337 154.575 62.5575C155.174 63.1147 155.971 63.3789 156.711 63.6866C157.071 63.854 157.831 64.0827 157.723 64.5519L157.717 64.5666L157.723 64.5636Z" fill="white"/>
<path d="M142.045 74.9901C142.259 74.8113 142.444 75.1308 142.526 75.3129C142.682 75.7865 142.908 76.2342 143.195 76.6416C143.506 76.9691 143.893 77.2149 144.322 77.3572C145.014 77.6301 145.307 77.893 144.477 78.281C143.674 78.656 143.02 79.2903 142.621 80.0819C142.468 80.3635 142.192 80.9237 141.872 80.4897C141.524 80.0263 141.324 79.3928 140.893 78.9792C140.524 78.6804 140.106 78.4481 139.658 78.2928C139.511 78.2258 139.291 78.0875 139.312 77.9439C139.341 77.7429 139.635 77.6124 139.814 77.5126C140.703 77.0552 141.348 76.5653 141.7 75.6441C141.77 75.4097 141.883 75.1907 142.035 74.9988L142.047 74.9871L142.045 74.9901Z" fill="white"/>
<path d="M160.954 71.6871C160.773 71.8366 160.568 71.9529 160.347 72.0303C159.003 72.485 158.706 74.984 158.126 73.9955C157.645 72.8955 157.411 72.6896 156.367 72.1448C155.475 71.6961 155.395 71.4701 156.413 71.1506C157.217 70.869 157.461 70.3235 157.809 69.6049C158.044 69.0799 158.364 68.429 158.739 69.3036C158.925 69.8747 159.274 70.3785 159.744 70.7525C159.95 70.9012 160.174 71.0249 160.41 71.1208C160.618 71.2323 161.166 71.379 160.973 71.675L160.964 71.6867L160.954 71.6871Z" fill="white"/>
<path d="M138.407 60.9062L135.594 63.719L154.948 83.0734L157.761 80.2607L138.407 60.9062ZM154.94 82.241L152.133 79.4339L154.124 77.4426L156.931 80.2493L154.94 82.241Z" fill="white"/>
<g opacity="0.4">
<path d="M22.152 127.165L23.4427 130.75C24.8764 134.728 28.0091 137.861 31.9873 139.294L35.5716 140.585C35.8947 140.702 35.8947 141.16 35.5716 141.276L31.9873 142.567C28.0091 144.001 24.8764 147.133 23.4427 151.112L22.152 154.696C22.0346 155.019 21.5765 155.019 21.4608 154.696L20.1701 151.112C18.7364 147.133 15.6037 144.001 11.6255 142.567L8.04113 141.276C7.71806 141.159 7.71806 140.701 8.04113 140.585L11.6255 139.294C15.6037 137.861 18.7364 134.728 20.1701 130.75L21.4608 127.165C21.5765 126.841 22.0346 126.841 22.152 127.165Z" fill="url(#paint2_linear_19717_29052)"/>
<path d="M38.2868 118.546L38.941 120.361C39.6675 122.375 41.2539 123.961 43.2679 124.688L45.0826 125.342C45.2466 125.401 45.2466 125.633 45.0826 125.692L43.2679 126.346C41.2539 127.073 39.6675 128.659 38.941 130.673L38.2868 132.488C38.2273 132.652 37.9958 132.652 37.9364 132.488L37.2822 130.673C36.5557 128.659 34.9692 127.073 32.9552 126.346L31.1405 125.692C30.9766 125.633 30.9766 125.401 31.1405 125.342L32.9552 124.688C34.9692 123.961 36.5557 122.375 37.2822 120.361L37.9364 118.546C37.9958 118.38 38.2289 118.38 38.2868 118.546Z" fill="url(#paint3_linear_19717_29052)"/>
<path d="M38.2868 149.365L38.941 151.18C39.6675 153.194 41.2539 154.78 43.2679 155.507L45.0826 156.161C45.2466 156.22 45.2466 156.452 45.0826 156.511L43.2679 157.166C41.2539 157.892 39.6675 159.479 38.941 161.493L38.2868 163.307C38.2273 163.471 37.9958 163.471 37.9364 163.307L37.2822 161.493C36.5557 159.479 34.9692 157.892 32.9552 157.166L31.1405 156.511C30.9766 156.452 30.9766 156.22 31.1405 156.161L32.9552 155.507C34.9692 154.78 36.5557 153.194 37.2822 151.18L37.9364 149.365C37.9958 149.201 38.2289 149.201 38.2868 149.365Z" fill="url(#paint4_linear_19717_29052)"/>
</g>
<g opacity="0.4">
<path d="M273.848 39.4752L272.557 35.8909C271.124 31.9127 267.991 28.78 264.013 27.3463L260.428 26.0556C260.105 25.9382 260.105 25.4801 260.428 25.3644L264.013 24.0737C267.991 22.64 271.124 19.5073 272.557 15.5291L273.848 11.9447C273.965 11.6216 274.423 11.6216 274.539 11.9447L275.83 15.5291C277.264 19.5073 280.396 22.64 284.374 24.0737L287.959 25.3644C288.282 25.4817 288.282 25.9398 287.959 26.0556L284.374 27.3463C280.396 28.78 277.264 31.9127 275.83 35.8909L274.539 39.4752C274.423 39.7999 273.965 39.7999 273.848 39.4752Z" fill="url(#paint5_linear_19717_29052)"/>
<path d="M257.713 48.0946L257.059 46.2799C256.333 44.2659 254.746 42.6795 252.732 41.9529L250.917 41.2987C250.753 41.2393 250.753 41.0078 250.917 40.9483L252.732 40.2942C254.746 39.5676 256.333 37.9812 257.059 35.9672L257.713 34.1525C257.773 33.9886 258.004 33.9886 258.064 34.1525L258.718 35.9672C259.444 37.9812 261.031 39.5676 263.045 40.2942L264.859 40.9484C265.023 41.0078 265.023 41.2393 264.859 41.2988L263.045 41.9529C261.031 42.6795 259.444 44.2659 258.718 46.2799L258.064 48.0946C258.004 48.2601 257.771 48.2601 257.713 48.0946Z" fill="url(#paint6_linear_19717_29052)"/>
<path d="M257.713 17.2755L257.059 15.4608C256.333 13.4468 254.746 11.8603 252.732 11.1338L250.917 10.4796C250.753 10.4202 250.753 10.1887 250.917 10.1292L252.732 9.47506C254.746 8.74854 256.333 7.1621 257.059 5.1481L257.713 3.33341C257.773 3.16946 258.004 3.16946 258.064 3.33341L258.718 5.1481C259.444 7.1621 261.031 8.74854 263.045 9.47506L264.859 10.1292C265.023 10.1887 265.023 10.4202 264.859 10.4796L263.045 11.1338C261.031 11.8604 259.444 13.4468 258.718 15.4608L258.064 17.2755C258.004 17.4394 257.771 17.4394 257.713 17.2755Z" fill="url(#paint7_linear_19717_29052)"/>
</g>
<defs>
<filter id="filter0_f_19717_29052" x="73.7281" y="9.38634" width="148.253" height="148.251" filterUnits="userSpaceOnUse" color-interpolation-filters="sRGB">
<feFlood flood-opacity="0" result="BackgroundImageFix"/>
<feBlend mode="normal" in="SourceGraphic" in2="BackgroundImageFix" result="shape"/>
<feGaussianBlur stdDeviation="3.02558" result="effect1_foregroundBlur_19717_29052"/>
</filter>
<linearGradient id="paint0_linear_19717_29052" x1="79.7793" y1="83.5131" x2="215.93" y2="83.5131" gradientUnits="userSpaceOnUse">
<stop stop-color="#D445EC"/>
<stop offset="0.27" stop-color="#B02EFB"/>
<stop offset="0.48" stop-color="#8E2FFD"/>
<stop offset="0.76" stop-color="#5E3DFE"/>
<stop offset="1" stop-color="#5186E0"/>
</linearGradient>
<linearGradient id="paint1_linear_19717_29052" x1="94.9082" y1="83.518" x2="200.804" y2="83.518" gradientUnits="userSpaceOnUse">
<stop stop-color="#D445EC"/>
<stop offset="0.27" stop-color="#B02EFB"/>
<stop offset="0.48" stop-color="#8E2FFD"/>
<stop offset="0.76" stop-color="#5E3DFE"/>
<stop offset="1" stop-color="#5186E0"/>
</linearGradient>
<linearGradient id="paint2_linear_19717_29052" x1="7.79883" y1="140.93" x2="35.814" y2="140.93" gradientUnits="userSpaceOnUse">
<stop stop-color="#D445EC"/>
<stop offset="0.27" stop-color="#B02EFB"/>
<stop offset="0.48" stop-color="#8E2FFD"/>
<stop offset="0.76" stop-color="#5E3DFE"/>
<stop offset="1" stop-color="#5186E0"/>
</linearGradient>
<linearGradient id="paint3_linear_19717_29052" x1="31.0176" y1="125.516" x2="45.2056" y2="125.516" gradientUnits="userSpaceOnUse">
<stop stop-color="#D445EC"/>
<stop offset="0.27" stop-color="#B02EFB"/>
<stop offset="0.48" stop-color="#8E2FFD"/>
<stop offset="0.76" stop-color="#5E3DFE"/>
<stop offset="1" stop-color="#5186E0"/>
</linearGradient>
<linearGradient id="paint4_linear_19717_29052" x1="31.0176" y1="156.336" x2="45.2056" y2="156.336" gradientUnits="userSpaceOnUse">
<stop stop-color="#D445EC"/>
<stop offset="0.27" stop-color="#B02EFB"/>
<stop offset="0.48" stop-color="#8E2FFD"/>
<stop offset="0.76" stop-color="#5E3DFE"/>
<stop offset="1" stop-color="#5186E0"/>
</linearGradient>
<linearGradient id="paint5_linear_19717_29052" x1="288.201" y1="25.7106" x2="260.186" y2="25.7106" gradientUnits="userSpaceOnUse">
<stop stop-color="#D445EC"/>
<stop offset="0.27" stop-color="#B02EFB"/>
<stop offset="0.48" stop-color="#8E2FFD"/>
<stop offset="0.76" stop-color="#5E3DFE"/>
<stop offset="1" stop-color="#5186E0"/>
</linearGradient>
<linearGradient id="paint6_linear_19717_29052" x1="264.982" y1="41.1242" x2="250.794" y2="41.1242" gradientUnits="userSpaceOnUse">
<stop stop-color="#D445EC"/>
<stop offset="0.27" stop-color="#B02EFB"/>
<stop offset="0.48" stop-color="#8E2FFD"/>
<stop offset="0.76" stop-color="#5E3DFE"/>
<stop offset="1" stop-color="#5186E0"/>
</linearGradient>
<linearGradient id="paint7_linear_19717_29052" x1="264.982" y1="10.3044" x2="250.794" y2="10.3044" gradientUnits="userSpaceOnUse">
<stop stop-color="#D445EC"/>
<stop offset="0.27" stop-color="#B02EFB"/>
<stop offset="0.48" stop-color="#8E2FFD"/>
<stop offset="0.76" stop-color="#5E3DFE"/>
<stop offset="1" stop-color="#5186E0"/>
</linearGradient>
</defs>
</svg>
