<svg width="201" height="34" viewBox="0 0 201 34" fill="none" xmlns="http://www.w3.org/2000/svg">
<rect x="0.773438" width="199.467" height="34" rx="17" fill="#F6F6F6"/>
<path d="M34.3438 8.35828C34.1801 8.35828 34.0231 8.42331 33.9074 8.53907C33.7916 8.65483 33.7266 8.81183 33.7266 8.97554V25.0243C33.7266 25.1881 33.7916 25.3451 33.9074 25.4608C34.0231 25.5766 34.1801 25.6416 34.3438 25.6416C34.5075 25.6416 34.6645 25.5766 34.7803 25.4608C34.8961 25.3451 34.9611 25.1881 34.9611 25.0243V8.97554C34.9611 8.81183 34.8961 8.65483 34.7803 8.53907C34.6645 8.42331 34.5075 8.35828 34.3438 8.35828Z" fill="#8E2FFD"/>
<path d="M36.8165 12.6791C36.6528 12.6791 36.4958 12.7441 36.38 12.8599C36.2643 12.9756 36.1992 13.1326 36.1992 13.2963V21.3207C36.1992 21.4845 36.2643 21.6415 36.38 21.7572C36.4958 21.873 36.6528 21.938 36.8165 21.938C36.9802 21.938 37.1372 21.873 37.253 21.7572C37.3687 21.6415 37.4337 21.4845 37.4337 21.3207V13.2963C37.4337 13.1326 37.3687 12.9756 37.253 12.8599C37.1372 12.7441 36.9802 12.6791 36.8165 12.6791Z" fill="#8E2FFD"/>
<path d="M39.2852 10.8274C39.1215 10.8274 38.9645 10.8924 38.8488 11.0082C38.733 11.1239 38.668 11.2809 38.668 11.4447V23.1726C38.668 23.3363 38.733 23.4933 38.8488 23.6091C38.9645 23.7249 39.1215 23.7899 39.2852 23.7899C39.4489 23.7899 39.6059 23.7249 39.7217 23.6091C39.8375 23.4933 39.9025 23.3363 39.9025 23.1726V11.4447C39.9025 11.2809 39.8375 11.1239 39.7217 11.0082C39.6059 10.8924 39.4489 10.8274 39.2852 10.8274Z" fill="#8E2FFD"/>
<path d="M41.7501 14.5309C41.5864 14.5309 41.4294 14.5959 41.3136 14.7117C41.1978 14.8274 41.1328 14.9844 41.1328 15.1481V19.469C41.1328 19.6327 41.1978 19.7897 41.3136 19.9054C41.4294 20.0212 41.5864 20.0862 41.7501 20.0862C41.9138 20.0862 42.0708 20.0212 42.1865 19.9054C42.3023 19.7897 42.3673 19.6327 42.3673 19.469V15.1481C42.3673 14.9844 42.3023 14.8274 42.1865 14.7117C42.0708 14.5959 41.9138 14.5309 41.7501 14.5309Z" fill="#8E2FFD"/>
<path d="M31.8751 12.6791C31.7114 12.6791 31.5544 12.7441 31.4386 12.8599C31.3228 12.9756 31.2578 13.1326 31.2578 13.2963V21.3207C31.2578 21.4845 31.3228 21.6415 31.4386 21.7572C31.5544 21.873 31.7114 21.938 31.8751 21.938C32.0388 21.938 32.1958 21.873 32.3115 21.7572C32.4273 21.6415 32.4923 21.4845 32.4923 21.3207V13.2963C32.4923 13.1326 32.4273 12.9756 32.3115 12.8599C32.1958 12.7441 32.0388 12.6791 31.8751 12.6791Z" fill="#8E2FFD"/>
<path d="M29.4063 10.8274C29.2426 10.8274 29.0856 10.8924 28.9699 11.0082C28.8541 11.1239 28.7891 11.2809 28.7891 11.4447V23.1726C28.7891 23.3363 28.8541 23.4933 28.9699 23.6091C29.0856 23.7249 29.2426 23.7899 29.4063 23.7899C29.57 23.7899 29.727 23.7249 29.8428 23.6091C29.9586 23.4933 30.0236 23.3363 30.0236 23.1726V11.4447C30.0236 11.2809 29.9586 11.1239 29.8428 11.0082C29.727 10.8924 29.57 10.8274 29.4063 10.8274Z" fill="#8E2FFD"/>
<path d="M26.9376 14.5309C26.7739 14.5309 26.6169 14.5959 26.5011 14.7117C26.3853 14.8274 26.3203 14.9844 26.3203 15.1481V19.469C26.3203 19.6327 26.3853 19.7897 26.5011 19.9054C26.6169 20.0212 26.7739 20.0862 26.9376 20.0862C27.1013 20.0862 27.2583 20.0212 27.374 19.9054C27.4898 19.7897 27.5548 19.6327 27.5548 19.469V15.1481C27.5548 14.9844 27.4898 14.8274 27.374 14.7117C27.2583 14.5959 27.1013 14.5309 26.9376 14.5309Z" fill="#8E2FFD"/>
<path d="M51.0977 8.35828C50.934 8.35828 50.777 8.42331 50.6613 8.53907C50.5455 8.65483 50.4805 8.81183 50.4805 8.97554V25.0243C50.4805 25.1881 50.5455 25.3451 50.6613 25.4608C50.777 25.5766 50.934 25.6416 51.0977 25.6416C51.2614 25.6416 51.4184 25.5766 51.5342 25.4608C51.65 25.3451 51.715 25.1881 51.715 25.0243V8.97554C51.715 8.81183 51.65 8.65483 51.5342 8.53907C51.4184 8.42331 51.2614 8.35828 51.0977 8.35828Z" fill="#8E2FFD"/>
<path d="M53.5665 12.6791C53.4028 12.6791 53.2458 12.7441 53.13 12.8599C53.0143 12.9756 52.9492 13.1326 52.9492 13.2963V21.3207C52.9492 21.4845 53.0143 21.6415 53.13 21.7572C53.2458 21.873 53.4028 21.938 53.5665 21.938C53.7302 21.938 53.8872 21.873 54.003 21.7572C54.1187 21.6415 54.1837 21.4845 54.1837 21.3207V13.2963C54.1837 13.1326 54.1187 12.9756 54.003 12.8599C53.8872 12.7441 53.7302 12.6791 53.5665 12.6791Z" fill="#8E2FFD"/>
<path d="M56.0352 10.8274C55.8715 10.8274 55.7145 10.8924 55.5988 11.0082C55.483 11.1239 55.418 11.2809 55.418 11.4447V23.1726C55.418 23.3363 55.483 23.4933 55.5988 23.6091C55.7145 23.7249 55.8715 23.7899 56.0352 23.7899C56.1989 23.7899 56.3559 23.7249 56.4717 23.6091C56.5875 23.4933 56.6525 23.3363 56.6525 23.1726V11.4447C56.6525 11.2809 56.5875 11.1239 56.4717 11.0082C56.3559 10.8924 56.1989 10.8274 56.0352 10.8274Z" fill="#8E2FFD"/>
<path d="M58.504 14.5309C58.3403 14.5309 58.1833 14.5959 58.0675 14.7117C57.9518 14.8274 57.8867 14.9844 57.8867 15.1481V19.469C57.8867 19.6327 57.9518 19.7897 58.0675 19.9054C58.1833 20.0212 58.3403 20.0862 58.504 20.0862C58.6677 20.0862 58.8247 20.0212 58.9405 19.9054C59.0562 19.7897 59.1212 19.6327 59.1212 19.469V15.1481C59.1212 14.9844 59.0562 14.8274 58.9405 14.7117C58.8247 14.5959 58.6677 14.5309 58.504 14.5309Z" fill="#8E2FFD"/>
<path d="M48.6251 12.6791C48.4614 12.6791 48.3044 12.7441 48.1886 12.8599C48.0728 12.9756 48.0078 13.1326 48.0078 13.2963V21.3207C48.0078 21.4845 48.0728 21.6415 48.1886 21.7572C48.3044 21.873 48.4614 21.938 48.6251 21.938C48.7888 21.938 48.9458 21.873 49.0615 21.7572C49.1773 21.6415 49.2423 21.4845 49.2423 21.3207V13.2963C49.2423 13.1326 49.1773 12.9756 49.0615 12.8599C48.9458 12.7441 48.7888 12.6791 48.6251 12.6791Z" fill="#8E2FFD"/>
<path d="M46.1602 10.8274C45.9965 10.8274 45.8395 10.8924 45.7238 11.0082C45.608 11.1239 45.543 11.2809 45.543 11.4447V23.1726C45.543 23.3363 45.608 23.4933 45.7238 23.6091C45.8395 23.7249 45.9965 23.7899 46.1602 23.7899C46.3239 23.7899 46.4809 23.7249 46.5967 23.6091C46.7125 23.4933 46.7775 23.3363 46.7775 23.1726V11.4447C46.7775 11.2809 46.7125 11.1239 46.5967 11.0082C46.4809 10.8924 46.3239 10.8274 46.1602 10.8274Z" fill="#8E2FFD"/>
<path d="M43.6915 14.5309C43.5278 14.5309 43.3708 14.5959 43.255 14.7117C43.1393 14.8274 43.0742 14.9844 43.0742 15.1481V19.469C43.0742 19.6327 43.1393 19.7897 43.255 19.9054C43.3708 20.0212 43.5278 20.0862 43.6915 20.0862C43.8552 20.0862 44.0122 20.0212 44.128 19.9054C44.2437 19.7897 44.3087 19.6327 44.3087 19.469V15.1481C44.3087 14.9844 44.2437 14.8274 44.128 14.7117C44.0122 14.5959 43.8552 14.5309 43.6915 14.5309Z" fill="#8E2FFD"/>
<path d="M67.8477 8.35828C67.684 8.35828 67.527 8.42331 67.4113 8.53907C67.2955 8.65483 67.2305 8.81183 67.2305 8.97554V25.0243C67.2305 25.1881 67.2955 25.3451 67.4113 25.4608C67.527 25.5766 67.684 25.6416 67.8477 25.6416C68.0114 25.6416 68.1684 25.5766 68.2842 25.4608C68.4 25.3451 68.465 25.1881 68.465 25.0243V8.97554C68.465 8.81183 68.4 8.65483 68.2842 8.53907C68.1684 8.42331 68.0114 8.35828 67.8477 8.35828Z" fill="#8E2FFD"/>
<path d="M70.3204 12.6791C70.1567 12.6791 69.9997 12.7441 69.8839 12.8599C69.7682 12.9756 69.7031 13.1326 69.7031 13.2963V21.3207C69.7031 21.4845 69.7682 21.6415 69.8839 21.7572C69.9997 21.873 70.1567 21.938 70.3204 21.938C70.4841 21.938 70.6411 21.873 70.7569 21.7572C70.8726 21.6415 70.9376 21.4845 70.9376 21.3207V13.2963C70.9376 13.1326 70.8726 12.9756 70.7569 12.8599C70.6411 12.7441 70.4841 12.6791 70.3204 12.6791Z" fill="#8E2FFD"/>
<path d="M72.7891 10.8274C72.6254 10.8274 72.4684 10.8924 72.3527 11.0082C72.2369 11.1239 72.1719 11.2809 72.1719 11.4447V23.1726C72.1719 23.3363 72.2369 23.4933 72.3527 23.6091C72.4684 23.7249 72.6254 23.7899 72.7891 23.7899C72.9528 23.7899 73.1098 23.7249 73.2256 23.6091C73.3414 23.4933 73.4064 23.3363 73.4064 23.1726V11.4447C73.4064 11.2809 73.3414 11.1239 73.2256 11.0082C73.1098 10.8924 72.9528 10.8274 72.7891 10.8274Z" fill="#8E2FFD"/>
<path d="M75.254 14.5309C75.0903 14.5309 74.9333 14.5959 74.8175 14.7117C74.7018 14.8274 74.6367 14.9844 74.6367 15.1481V19.469C74.6367 19.6327 74.7018 19.7897 74.8175 19.9054C74.9333 20.0212 75.0903 20.0862 75.254 20.0862C75.4177 20.0862 75.5747 20.0212 75.6905 19.9054C75.8062 19.7897 75.8712 19.6327 75.8712 19.469V15.1481C75.8712 14.9844 75.8062 14.8274 75.6905 14.7117C75.5747 14.5959 75.4177 14.5309 75.254 14.5309Z" fill="#8E2FFD"/>
<path d="M65.379 12.6791C65.2153 12.6791 65.0583 12.7441 64.9425 12.8599C64.8268 12.9756 64.7617 13.1326 64.7617 13.2963V21.3207C64.7617 21.4845 64.8268 21.6415 64.9425 21.7572C65.0583 21.873 65.2153 21.938 65.379 21.938C65.5427 21.938 65.6997 21.873 65.8155 21.7572C65.9312 21.6415 65.9962 21.4845 65.9962 21.3207V13.2963C65.9962 13.1326 65.9312 12.9756 65.8155 12.8599C65.6997 12.7441 65.5427 12.6791 65.379 12.6791Z" fill="#8E2FFD"/>
<path d="M62.9141 10.8274C62.7504 10.8274 62.5934 10.8924 62.4777 11.0082C62.3619 11.1239 62.2969 11.2809 62.2969 11.4447V23.1726C62.2969 23.3363 62.3619 23.4933 62.4777 23.6091C62.5934 23.7249 62.7504 23.7899 62.9141 23.7899C63.0778 23.7899 63.2348 23.7249 63.3506 23.6091C63.4664 23.4933 63.5314 23.3363 63.5314 23.1726V11.4447C63.5314 11.2809 63.4664 11.1239 63.3506 11.0082C63.2348 10.8924 63.0778 10.8274 62.9141 10.8274Z" fill="#8E2FFD"/>
<path d="M60.4415 14.5309C60.2778 14.5309 60.1208 14.5959 60.005 14.7117C59.8893 14.8274 59.8242 14.9844 59.8242 15.1481V19.469C59.8242 19.6327 59.8893 19.7897 60.005 19.9054C60.1208 20.0212 60.2778 20.0862 60.4415 20.0862C60.6052 20.0862 60.7622 20.0212 60.878 19.9054C60.9937 19.7897 61.0587 19.6327 61.0587 19.469V15.1481C61.0587 14.9844 60.9937 14.8274 60.878 14.7117C60.7622 14.5959 60.6052 14.5309 60.4415 14.5309Z" fill="#8E2FFD"/>
<path d="M84.6016 8.35828C84.4379 8.35828 84.2809 8.42331 84.1652 8.53907C84.0494 8.65483 83.9844 8.81183 83.9844 8.97554V25.0243C83.9844 25.1881 84.0494 25.3451 84.1652 25.4608C84.2809 25.5766 84.4379 25.6416 84.6016 25.6416C84.7653 25.6416 84.9223 25.5766 85.0381 25.4608C85.1539 25.3451 85.2189 25.1881 85.2189 25.0243V8.97554C85.2189 8.81183 85.1539 8.65483 85.0381 8.53907C84.9223 8.42331 84.7653 8.35828 84.6016 8.35828Z" fill="#8E2FFD"/>
<path d="M87.0743 12.6791C86.9106 12.6791 86.7536 12.7441 86.6378 12.8599C86.5221 12.9756 86.457 13.1326 86.457 13.2963V21.3207C86.457 21.4845 86.5221 21.6415 86.6378 21.7572C86.7536 21.873 86.9106 21.938 87.0743 21.938C87.238 21.938 87.395 21.873 87.5108 21.7572C87.6265 21.6415 87.6916 21.4845 87.6916 21.3207V13.2963C87.6916 13.1326 87.6265 12.9756 87.5108 12.8599C87.395 12.7441 87.238 12.6791 87.0743 12.6791Z" fill="#8E2FFD"/>
<path d="M89.543 10.8274C89.3793 10.8274 89.2223 10.8924 89.1066 11.0082C88.9908 11.1239 88.9258 11.2809 88.9258 11.4447V23.1726C88.9258 23.3363 88.9908 23.4933 89.1066 23.6091C89.2223 23.7249 89.3793 23.7899 89.543 23.7899C89.7068 23.7899 89.8638 23.7249 89.9795 23.6091C90.0953 23.4933 90.1603 23.3363 90.1603 23.1726V11.4447C90.1603 11.2809 90.0953 11.1239 89.9795 11.0082C89.8638 10.8924 89.7068 10.8274 89.543 10.8274Z" fill="#8E2FFD"/>
<path d="M92.0079 14.5309C91.8442 14.5309 91.6872 14.5959 91.5714 14.7117C91.4557 14.8274 91.3906 14.9844 91.3906 15.1481V19.469C91.3906 19.6327 91.4557 19.7897 91.5714 19.9054C91.6872 20.0212 91.8442 20.0862 92.0079 20.0862C92.1716 20.0862 92.3286 20.0212 92.4444 19.9054C92.5601 19.7897 92.6251 19.6327 92.6251 19.469V15.1481C92.6251 14.9844 92.5601 14.8274 92.4444 14.7117C92.3286 14.5959 92.1716 14.5309 92.0079 14.5309Z" fill="#8E2FFD"/>
<path d="M82.1329 12.6791C81.9692 12.6791 81.8122 12.7441 81.6964 12.8599C81.5807 12.9756 81.5156 13.1326 81.5156 13.2963V21.3207C81.5156 21.4845 81.5807 21.6415 81.6964 21.7572C81.8122 21.873 81.9692 21.938 82.1329 21.938C82.2966 21.938 82.4536 21.873 82.5694 21.7572C82.6851 21.6415 82.7501 21.4845 82.7501 21.3207V13.2963C82.7501 13.1326 82.6851 12.9756 82.5694 12.8599C82.4536 12.7441 82.2966 12.6791 82.1329 12.6791Z" fill="#8E2FFD"/>
<path d="M79.668 10.8274C79.5043 10.8274 79.3473 10.8924 79.2316 11.0082C79.1158 11.1239 79.0508 11.2809 79.0508 11.4447V23.1726C79.0508 23.3363 79.1158 23.4933 79.2316 23.6091C79.3473 23.7249 79.5043 23.7899 79.668 23.7899C79.8318 23.7899 79.9888 23.7249 80.1045 23.6091C80.2203 23.4933 80.2853 23.3363 80.2853 23.1726V11.4447C80.2853 11.2809 80.2203 11.1239 80.1045 11.0082C79.9888 10.8924 79.8318 10.8274 79.668 10.8274Z" fill="#8E2FFD"/>
<path d="M77.1954 14.5309C77.0317 14.5309 76.8747 14.5959 76.7589 14.7117C76.6432 14.8274 76.5781 14.9844 76.5781 15.1481V19.469C76.5781 19.6327 76.6432 19.7897 76.7589 19.9054C76.8747 20.0212 77.0317 20.0862 77.1954 20.0862C77.3591 20.0862 77.5161 20.0212 77.6319 19.9054C77.7476 19.7897 77.8126 19.6327 77.8126 19.469V15.1481C77.8126 14.9844 77.7476 14.8274 77.6319 14.7117C77.5161 14.5959 77.3591 14.5309 77.1954 14.5309Z" fill="#8E2FFD"/>
<path d="M102.923 23V12.57H104.043V21.95H108.663V23H102.923ZM110.207 23V15.496H111.257V23H110.207ZM110.207 14.11V12.57H111.257V14.11H110.207ZM116.01 23.168C115.291 23.168 114.661 22.986 114.12 22.622C113.579 22.258 113.187 21.7633 112.944 21.138L113.826 20.718C114.041 21.1753 114.339 21.5393 114.722 21.81C115.114 22.0807 115.543 22.216 116.01 22.216C116.458 22.216 116.836 22.1087 117.144 21.894C117.452 21.67 117.606 21.3807 117.606 21.026C117.606 20.7647 117.531 20.5593 117.382 20.41C117.233 20.2513 117.06 20.13 116.864 20.046C116.668 19.962 116.495 19.9013 116.346 19.864L115.268 19.556C114.577 19.36 114.078 19.0847 113.77 18.73C113.462 18.3753 113.308 17.9647 113.308 17.498C113.308 17.0593 113.42 16.6767 113.644 16.35C113.868 16.0233 114.171 15.7713 114.554 15.594C114.937 15.4167 115.361 15.328 115.828 15.328C116.463 15.328 117.037 15.496 117.55 15.832C118.073 16.1587 118.441 16.616 118.656 17.204L117.76 17.624C117.573 17.204 117.303 16.8773 116.948 16.644C116.603 16.4013 116.215 16.28 115.786 16.28C115.366 16.28 115.03 16.3873 114.778 16.602C114.526 16.8167 114.4 17.0873 114.4 17.414C114.4 17.666 114.465 17.8667 114.596 18.016C114.727 18.1653 114.876 18.2773 115.044 18.352C115.221 18.4267 115.375 18.4827 115.506 18.52L116.752 18.884C117.359 19.0613 117.83 19.3367 118.166 19.71C118.511 20.0833 118.684 20.522 118.684 21.026C118.684 21.4367 118.567 21.8053 118.334 22.132C118.11 22.4587 117.797 22.7153 117.396 22.902C116.995 23.0793 116.533 23.168 116.01 23.168ZM123.399 23.084C122.727 23.084 122.209 22.888 121.845 22.496C121.481 22.104 121.299 21.544 121.299 20.816V16.546H119.913V15.496H120.263C120.581 15.496 120.833 15.3933 121.019 15.188C121.206 14.9733 121.299 14.7073 121.299 14.39V13.76H122.349V15.496H124.001V16.546H122.349V20.816C122.349 21.068 122.387 21.292 122.461 21.488C122.536 21.6747 122.662 21.824 122.839 21.936C123.026 22.048 123.273 22.104 123.581 22.104C123.656 22.104 123.745 22.0993 123.847 22.09C123.95 22.0807 124.039 22.0713 124.113 22.062V23C124.001 23.028 123.875 23.0467 123.735 23.056C123.595 23.0747 123.483 23.084 123.399 23.084ZM129.099 23.168C128.399 23.168 127.765 23 127.195 22.664C126.635 22.3187 126.192 21.8473 125.865 21.25C125.539 20.6527 125.375 19.976 125.375 19.22C125.375 18.464 125.534 17.7967 125.851 17.218C126.169 16.63 126.598 16.168 127.139 15.832C127.69 15.496 128.306 15.328 128.987 15.328C129.529 15.328 130.009 15.4307 130.429 15.636C130.859 15.832 131.223 16.1027 131.521 16.448C131.82 16.784 132.049 17.1667 132.207 17.596C132.366 18.016 132.445 18.45 132.445 18.898C132.445 18.9913 132.441 19.0987 132.431 19.22C132.422 19.332 132.408 19.4487 132.389 19.57H126.047V18.59H131.787L131.283 19.01C131.367 18.4967 131.307 18.0393 131.101 17.638C130.905 17.2273 130.621 16.9053 130.247 16.672C129.874 16.4293 129.454 16.308 128.987 16.308C128.521 16.308 128.087 16.4293 127.685 16.672C127.293 16.9147 126.985 17.2553 126.761 17.694C126.537 18.1233 126.449 18.6367 126.495 19.234C126.449 19.8313 126.542 20.354 126.775 20.802C127.018 21.2407 127.345 21.5813 127.755 21.824C128.175 22.0667 128.623 22.188 129.099 22.188C129.65 22.188 130.112 22.0573 130.485 21.796C130.859 21.5347 131.162 21.208 131.395 20.816L132.291 21.292C132.142 21.628 131.913 21.9407 131.605 22.23C131.297 22.51 130.929 22.7387 130.499 22.916C130.079 23.084 129.613 23.168 129.099 23.168ZM134.297 23V15.496H135.347V16.952L135.109 16.896C135.295 16.4107 135.599 16.028 136.019 15.748C136.448 15.468 136.943 15.328 137.503 15.328C138.035 15.328 138.511 15.4493 138.931 15.692C139.36 15.9347 139.696 16.2707 139.939 16.7C140.191 17.12 140.317 17.596 140.317 18.128V23H139.267V18.534C139.267 18.0767 139.183 17.6893 139.015 17.372C138.856 17.0547 138.627 16.812 138.329 16.644C138.039 16.4667 137.703 16.378 137.321 16.378C136.938 16.378 136.597 16.4667 136.299 16.644C136 16.812 135.767 17.0593 135.599 17.386C135.431 17.7033 135.347 18.086 135.347 18.534V23H134.297ZM142.322 23V15.496H143.372V23H142.322ZM142.322 14.11V12.57H143.372V14.11H142.322ZM145.521 23V15.496H146.571V16.952L146.333 16.896C146.52 16.4107 146.823 16.028 147.243 15.748C147.673 15.468 148.167 15.328 148.727 15.328C149.259 15.328 149.735 15.4493 150.155 15.692C150.585 15.9347 150.921 16.2707 151.163 16.7C151.415 17.12 151.541 17.596 151.541 18.128V23H150.491V18.534C150.491 18.0767 150.407 17.6893 150.239 17.372C150.081 17.0547 149.852 16.812 149.553 16.644C149.264 16.4667 148.928 16.378 148.545 16.378C148.163 16.378 147.822 16.4667 147.523 16.644C147.225 16.812 146.991 17.0593 146.823 17.386C146.655 17.7033 146.571 18.086 146.571 18.534V23H145.521ZM157.103 26.08C156.589 26.08 156.113 26.0007 155.675 25.842C155.245 25.6833 154.872 25.464 154.555 25.184C154.247 24.9133 154.009 24.596 153.841 24.232L154.807 23.714C154.956 24.0687 155.222 24.3767 155.605 24.638C155.987 24.8993 156.477 25.03 157.075 25.03C157.532 25.03 157.952 24.9413 158.335 24.764C158.717 24.5867 159.025 24.3253 159.259 23.98C159.492 23.6347 159.609 23.21 159.609 22.706V21.04L159.777 21.194C159.515 21.7353 159.128 22.1553 158.615 22.454C158.101 22.7433 157.541 22.888 156.935 22.888C156.235 22.888 155.605 22.72 155.045 22.384C154.485 22.048 154.041 21.5953 153.715 21.026C153.397 20.4473 153.239 19.808 153.239 19.108C153.239 18.3987 153.397 17.7593 153.715 17.19C154.041 16.6207 154.48 16.168 155.031 15.832C155.591 15.496 156.225 15.328 156.935 15.328C157.541 15.328 158.092 15.468 158.587 15.748C159.091 16.028 159.487 16.406 159.777 16.882L159.609 17.176V15.496H160.659V22.706C160.659 23.35 160.505 23.924 160.197 24.428C159.898 24.9413 159.478 25.3427 158.937 25.632C158.405 25.9307 157.793 26.08 157.103 26.08ZM156.991 21.838C157.476 21.838 157.915 21.7167 158.307 21.474C158.699 21.222 159.011 20.8907 159.245 20.48C159.487 20.06 159.609 19.6027 159.609 19.108C159.609 18.6133 159.487 18.1607 159.245 17.75C159.011 17.33 158.699 16.9987 158.307 16.756C157.915 16.504 157.476 16.378 156.991 16.378C156.496 16.378 156.048 16.504 155.647 16.756C155.245 16.9987 154.928 17.3253 154.695 17.736C154.471 18.1467 154.359 18.604 154.359 19.108C154.359 19.6027 154.471 20.06 154.695 20.48C154.928 20.8907 155.241 21.222 155.633 21.474C156.034 21.7167 156.487 21.838 156.991 21.838ZM163.18 23V21.46H164.3V23H163.18ZM167.186 23V21.46H168.306V23H167.186ZM171.192 23V21.46H172.312V23H171.192Z" fill="#242424"/>
</svg>
