<svg width="35" height="34" viewBox="0 0 35 34" fill="none" xmlns="http://www.w3.org/2000/svg">
<rect x="0.867188" width="34" height="34" rx="17" fill="#F6F6F6"/>
<g clip-path="url(#clip0_19690_41712)">
<path d="M23.9343 16.6314C23.9343 16.3499 23.7061 16.1218 23.4247 16.1218C23.1432 16.1218 22.915 16.3499 22.915 16.6314C22.915 19.4156 20.6498 21.6808 17.8656 21.6808C15.0813 21.6808 12.8161 19.4156 12.8161 16.6314C12.8161 16.3499 12.5879 16.1218 12.3065 16.1218C12.025 16.1218 11.7969 16.3499 11.7969 16.6314C11.7969 19.8061 14.2472 22.4188 17.356 22.6785V24.4816H15.086C14.8046 24.4816 14.5764 24.7097 14.5764 24.9912C14.5764 25.2727 14.8046 25.5008 15.086 25.5008H20.6451C20.9265 25.5008 21.1547 25.2727 21.1547 24.9912C21.1547 24.7097 20.9265 24.4816 20.6451 24.4816H18.3751V22.6785C21.4838 22.4188 23.9343 19.8061 23.9343 16.6314Z" fill="#585C77"/>
<path d="M17.8672 19.9197C19.6809 19.9197 21.1564 18.4442 21.1564 16.6306V11.7891C21.1564 9.9755 19.6809 8.5 17.8672 8.5C16.0536 8.5 14.5781 9.9755 14.5781 11.7891V16.6306C14.5781 18.4443 16.0536 19.9197 17.8672 19.9197ZM15.5974 11.7891C15.5974 10.5375 16.6156 9.51923 17.8672 9.51923C19.1189 9.51923 20.1372 10.5375 20.1372 11.7891V16.6306C20.1372 17.8822 19.1189 18.9005 17.8672 18.9005C16.6156 18.9005 15.5974 17.8822 15.5974 16.6306V11.7891Z" fill="#585C77"/>
</g>
<defs>
<clipPath id="clip0_19690_41712">
<rect width="17" height="17" fill="white" transform="translate(9.36719 8.5)"/>
</clipPath>
</defs>
</svg>
