<svg width="98" height="98" viewBox="0 0 98 98" fill="none" xmlns="http://www.w3.org/2000/svg">
<g filter="url(#filter0_f_18469_17594)">
<rect x="4" y="4" width="90" height="90" rx="45" fill="url(#paint0_linear_18469_17594)" fill-opacity="0.1"/>
</g>
<circle cx="49" cy="49" r="35" fill="url(#paint1_linear_18469_17594)"/>
<path d="M40.9138 58.5009V56.6261H34V58.6558H37.9048L34 63.3163V65.259H40.9313V63.2291H36.976L40.9138 58.5009ZM65.1119 58.7665C65.0383 58.2875 64.8688 57.8283 64.6136 57.4163C64.3872 57.0744 64.0588 56.8126 63.6751 56.6679C63.198 56.4994 62.6939 56.4205 62.1881 56.4353C61.9003 56.4374 61.6141 56.4778 61.337 56.5555C61.0535 56.6329 60.775 56.7281 60.5034 56.8406C60.271 56.9338 60.0466 57.046 59.8325 57.1759V56.6252H57.5447V65.2577H59.8325V58.8783C59.99 58.7963 60.1541 58.7276 60.323 58.6729C60.5303 58.6015 60.7429 58.547 60.959 58.51C61.1721 58.4714 61.3881 58.4513 61.6046 58.4498C61.9106 58.429 62.2145 58.5138 62.4654 58.6901C62.6857 58.8963 62.8258 59.1738 62.861 59.4735C62.9389 59.9482 62.9733 60.429 62.9637 60.91V65.2608H65.269V60.7896C65.2779 60.1129 65.2261 59.4368 65.1141 58.7694L65.1119 58.7665ZM53.1244 65.2588H55.4974V53.5117H53.1244V65.2588ZM44.7156 53.5117L41.7228 65.2588H44.0779L44.6964 62.8858H48.8059L49.4593 65.2588H51.8324L48.857 53.5117H44.711H44.7156ZM45.0762 60.9762L46.4178 55.439H47.1389L48.463 60.9762H45.0744H45.0762Z" fill="white"/>
<path d="M55.5264 36.4711C55.3908 36.7135 55.0087 36.7987 54.7626 36.9209C53.8145 37.3262 53.1571 37.8672 52.7229 38.7647C52.5329 39.133 52.2014 40.3389 51.7341 39.5228C50.976 37.8264 50.9643 37.5376 49.1574 36.8589C48.95 36.7657 48.6319 36.632 48.6204 36.4052C48.6612 36.0731 49.2291 35.9625 49.4987 35.8352C50.5185 35.4611 51.015 35.0518 51.4143 34.0361C51.5251 33.7089 51.6825 33.3994 51.8815 33.1171C52.341 32.6653 52.5697 33.6463 52.7249 33.9429C52.8791 34.3894 53.1247 34.7988 53.446 35.145C53.8415 35.5134 54.3688 35.688 54.8575 35.8914C55.0959 36.0021 55.5982 36.1533 55.5264 36.4634L55.5225 36.4731L55.5264 36.4711Z" fill="white"/>
<path d="M45.1597 43.3629C45.3011 43.2447 45.4233 43.4559 45.4775 43.5763C45.5809 43.8893 45.7301 44.1853 45.9202 44.4546C46.1258 44.6711 46.3815 44.8336 46.6648 44.9276C47.1224 45.108 47.3163 45.2818 46.7676 45.5383C46.2365 45.7862 45.8042 46.2055 45.5402 46.7287C45.4395 46.9149 45.2571 47.2852 45.0457 46.9983C44.815 46.692 44.6831 46.2732 44.3982 45.9998C44.1546 45.8023 43.8783 45.6488 43.5819 45.5461C43.485 45.5018 43.3395 45.4104 43.353 45.3154C43.3725 45.1826 43.5664 45.0963 43.6851 45.0303C44.2725 44.728 44.6991 44.4041 44.9317 43.7952C44.9777 43.6403 45.0528 43.4955 45.153 43.3687L45.1608 43.3609L45.1597 43.3629Z" fill="white"/>
<path d="M57.6592 41.1792C57.5399 41.278 57.404 41.3549 57.2579 41.406C56.3698 41.7066 56.1733 43.3585 55.7901 42.7051C55.4723 41.978 55.3171 41.8419 54.6269 41.4817C54.0375 41.1851 53.985 41.0357 54.6579 40.8246C55.1891 40.6384 55.3501 40.2778 55.5807 39.8028C55.7356 39.4558 55.9473 39.0255 56.1954 39.6036C56.318 39.9811 56.5489 40.3142 56.8594 40.5614C56.9959 40.6597 57.1437 40.7414 57.2995 40.8049C57.4371 40.8786 57.7997 40.9755 57.6718 41.1712L57.666 41.1789L57.6592 41.1792Z" fill="white"/>
<path d="M42.7556 34.0547L40.8963 35.914L53.6902 48.7079L55.5495 46.8485L42.7556 34.0547ZM53.6846 48.1576L51.8293 46.302L53.1456 44.9857L55.001 46.841L53.6846 48.1576Z" fill="white"/>
<defs>
<filter id="filter0_f_18469_17594" x="0" y="0" width="98" height="98" filterUnits="userSpaceOnUse" color-interpolation-filters="sRGB">
<feFlood flood-opacity="0" result="BackgroundImageFix"/>
<feBlend mode="normal" in="SourceGraphic" in2="BackgroundImageFix" result="shape"/>
<feGaussianBlur stdDeviation="2" result="effect1_foregroundBlur_18469_17594"/>
</filter>
<linearGradient id="paint0_linear_18469_17594" x1="4" y1="49" x2="94" y2="49" gradientUnits="userSpaceOnUse">
<stop stop-color="#D445EC"/>
<stop offset="0.27" stop-color="#B02EFB"/>
<stop offset="0.48" stop-color="#8E2FFD"/>
<stop offset="0.76" stop-color="#5E3DFE"/>
<stop offset="1" stop-color="#5186E0"/>
</linearGradient>
<linearGradient id="paint1_linear_18469_17594" x1="14" y1="49" x2="84" y2="49" gradientUnits="userSpaceOnUse">
<stop stop-color="#D445EC"/>
<stop offset="0.27" stop-color="#B02EFB"/>
<stop offset="0.48" stop-color="#8E2FFD"/>
<stop offset="0.76" stop-color="#5E3DFE"/>
<stop offset="1" stop-color="#5186E0"/>
</linearGradient>
</defs>
</svg>
