<svg width="61" height="60" viewBox="0 0 61 60" fill="none" xmlns="http://www.w3.org/2000/svg">
<rect x="0.5" width="60" height="60" rx="30" fill="url(#paint0_linear_19690_28843)"/>
<path d="M20.5002 31.0033L38.0862 31.0033L32.7932 36.2963C32.6977 36.3886 32.6215 36.4989 32.5691 36.6209C32.5167 36.7429 32.4891 36.8742 32.488 37.0069C32.4868 37.1397 32.5121 37.2714 32.5624 37.3943C32.6127 37.5172 32.6869 37.6288 32.7808 37.7227C32.8747 37.8166 32.9864 37.8909 33.1093 37.9412C33.2322 37.9914 33.3638 38.0167 33.4966 38.0156C33.6294 38.0144 33.7606 37.9868 33.8826 37.9344C34.0046 37.882 34.115 37.8058 34.2072 37.7103L41.2072 30.7103C41.3947 30.5228 41.5 30.2685 41.5 30.0033C41.5 29.7382 41.3947 29.4839 41.2072 29.2963L34.2072 22.2963C34.0186 22.1142 33.766 22.0134 33.5038 22.0157C33.2416 22.0179 32.9908 22.1231 32.8054 22.3085C32.62 22.4939 32.5148 22.7447 32.5125 23.0069C32.5103 23.2691 32.6111 23.5217 32.7932 23.7103L38.0862 29.0033L20.5002 29.0033C20.235 29.0033 19.9806 29.1087 19.7931 29.2962C19.6056 29.4838 19.5002 29.7381 19.5002 30.0033C19.5002 30.2686 19.6056 30.5229 19.7931 30.7104C19.9806 30.898 20.235 31.0033 20.5002 31.0033Z" fill="white"/>
<defs>
<linearGradient id="paint0_linear_19690_28843" x1="0.5" y1="30" x2="60.5" y2="30" gradientUnits="userSpaceOnUse">
<stop stop-color="#D445EC"/>
<stop offset="0.27" stop-color="#B02EFB"/>
<stop offset="0.48" stop-color="#8E2FFD"/>
<stop offset="0.76" stop-color="#5E3DFE"/>
<stop offset="1" stop-color="#5186E0"/>
</linearGradient>
</defs>
</svg>
