<svg width="69" height="69" viewBox="0 0 69 69" fill="none" xmlns="http://www.w3.org/2000/svg">
<rect x="0.5" y="0.5" width="68" height="68" rx="13.53" fill="#F6F2FF"/>
<rect x="0.5" y="0.5" width="68" height="68" rx="13.53" stroke="#F2ECFF"/>
<path d="M26.4637 42.788V41.1295H20.3477V42.9251H23.8019L20.3477 47.0478V48.7664H26.4792V46.9706H22.9803L26.4637 42.788ZM47.8697 43.023C47.8046 42.5992 47.6547 42.193 47.4289 41.8285C47.2286 41.5261 46.9381 41.2945 46.5987 41.1665C46.1767 41.0175 45.7307 40.9477 45.2833 40.9607C45.0287 40.9626 44.7755 40.9984 44.5304 41.0671C44.2796 41.1356 44.0333 41.2198 43.793 41.3193C43.5874 41.4017 43.3889 41.501 43.1995 41.6159V41.1287H41.1756V48.7652H43.1995V43.1219C43.3389 43.0493 43.484 42.9886 43.6334 42.9401C43.8167 42.877 44.0049 42.8288 44.196 42.796C44.3845 42.7619 44.5756 42.7441 44.7671 42.7428C45.0378 42.7244 45.3066 42.7995 45.5286 42.9554C45.7235 43.1378 45.8474 43.3833 45.8785 43.6484C45.9475 44.0683 45.9779 44.4937 45.9694 44.9192V48.7679H48.0087V44.8126C48.0166 44.214 47.9707 43.6159 47.8717 43.0255L47.8697 43.023ZM37.2654 48.7662H39.3646V38.3745H37.2654V48.7662ZM29.8269 38.3745L27.1794 48.7662H29.2628L29.8098 46.6669H33.4452L34.0232 48.7662H36.1225L33.4904 38.3745H29.8228H29.8269ZM30.1458 44.9777L31.3326 40.0794H31.9706L33.1419 44.9777H30.1443H30.1458Z" fill="#E0D7F3"/>
<path d="M39.3865 23.3025C39.2665 23.517 38.9285 23.5923 38.7108 23.7004C37.8721 24.0589 37.2906 24.5375 36.9064 25.3315C36.7384 25.6573 36.4451 26.7241 36.0318 26.0021C35.3611 24.5015 35.3507 24.2459 33.7524 23.6456C33.5689 23.5632 33.2875 23.4449 33.2773 23.2442C33.3134 22.9505 33.8158 22.8526 34.0543 22.74C34.9564 22.4091 35.3956 22.047 35.7488 21.1485C35.8469 20.859 35.9861 20.5852 36.1622 20.3355C36.5687 19.9358 36.7709 20.8037 36.9082 21.066C37.0446 21.461 37.2619 21.8232 37.5461 22.1295C37.896 22.4553 38.3624 22.6098 38.7948 22.7897C39.0057 22.8876 39.45 23.0214 39.3865 23.2957L39.383 23.3043L39.3865 23.3025Z" fill="#E0D7F3"/>
<path d="M30.2161 29.3989C30.3413 29.2944 30.4493 29.4812 30.4973 29.5877C30.5888 29.8646 30.7207 30.1264 30.8889 30.3647C31.0707 30.5562 31.297 30.6999 31.5476 30.7831C31.9524 30.9427 32.1239 31.0964 31.6385 31.3233C31.1687 31.5426 30.7862 31.9135 30.5527 32.3764C30.4636 32.5411 30.3023 32.8686 30.1153 32.6149C29.9113 32.3439 29.7946 31.9734 29.5426 31.7316C29.327 31.5569 29.0826 31.421 28.8204 31.3302C28.7347 31.291 28.606 31.2102 28.618 31.1262C28.6352 31.0087 28.8067 30.9323 28.9117 30.874C29.4313 30.6065 29.8087 30.32 30.0145 29.7814C30.0552 29.6443 30.1216 29.5162 30.2103 29.404L30.2171 29.3972L30.2161 29.3989Z" fill="#E0D7F3"/>
<path d="M41.2749 27.4657C41.1695 27.5531 41.0493 27.6211 40.9199 27.6664C40.1344 27.9323 39.9605 29.3936 39.6216 28.8156C39.3404 28.1723 39.2031 28.0519 38.5926 27.7333C38.0712 27.4709 38.0247 27.3388 38.62 27.152C39.0899 26.9873 39.2323 26.6683 39.4363 26.2481C39.5734 25.9411 39.7606 25.5605 39.9801 26.0719C40.0885 26.4058 40.2928 26.7005 40.5675 26.9192C40.6883 27.0061 40.8189 27.0784 40.9568 27.1346C41.0785 27.1998 41.3993 27.2855 41.2861 27.4586L41.281 27.4655L41.2749 27.4657Z" fill="#E0D7F3"/>
<path d="M28.0901 21.166L26.4453 22.8108L37.763 34.1284L39.4077 32.4837L28.0901 21.166ZM37.7581 33.6417L36.1168 32.0002L37.2813 30.8357L38.9225 32.477L37.7581 33.6417Z" fill="#E0D7F3"/>
</svg>
