<svg width="9" height="13" viewBox="0 0 9 13" fill="none" xmlns="http://www.w3.org/2000/svg">
<path d="M4.5 0.5C3.30701 0.501583 2.16334 0.976196 1.31977 1.81977C0.476196 2.66334 0.00158253 3.80701 0 5C0 8.23062 4.1925 12.2769 4.37062 12.4475C4.40527 12.4812 4.45168 12.5 4.5 12.5C4.54831 12.5 4.59472 12.4812 4.62937 12.4475C4.80749 12.2769 8.99999 8.23062 8.99999 5C8.99841 3.80701 8.52379 2.66334 7.68022 1.81977C6.83665 0.976196 5.69298 0.501583 4.5 0.5ZM4.5 7.06249C4.09207 7.06249 3.69331 6.94153 3.35413 6.7149C3.01496 6.48827 2.7506 6.16615 2.5945 5.78928C2.43839 5.41241 2.39755 4.99771 2.47713 4.59762C2.55671 4.19754 2.75314 3.83003 3.04159 3.54159C3.33003 3.25314 3.69754 3.05671 4.09762 2.97713C4.49771 2.89755 4.91241 2.93839 5.28928 3.0945C5.66615 3.2506 5.98827 3.51496 6.2149 3.85413C6.44153 4.19331 6.56249 4.59207 6.56249 5C6.56217 5.5469 6.34476 6.07132 5.95804 6.45804C5.57132 6.84476 5.0469 7.06217 4.5 7.06249Z" fill="#A674BF"/>
</svg>
