<svg width="61" height="60" viewBox="0 0 61 60" fill="none" xmlns="http://www.w3.org/2000/svg">
<rect x="0.5" width="60" height="60" rx="30" fill="#F5F7FF"/>
<path d="M40.4998 28.9967L22.9138 28.9967L28.2068 23.7037C28.3023 23.6114 28.3785 23.5011 28.4309 23.3791C28.4833 23.2571 28.5109 23.1258 28.512 22.9931C28.5132 22.8603 28.4879 22.7286 28.4376 22.6057C28.3873 22.4828 28.3131 22.3712 28.2192 22.2773C28.1253 22.1834 28.0136 22.1091 27.8907 22.0588C27.7678 22.0086 27.6362 21.9833 27.5034 21.9844C27.3706 21.9856 27.2394 22.0132 27.1174 22.0656C26.9954 22.118 26.885 22.1942 26.7928 22.2897L19.7928 29.2897C19.6053 29.4772 19.5 29.7315 19.5 29.9967C19.5 30.2618 19.6053 30.5161 19.7928 30.7037L26.7928 37.7037C26.9814 37.8858 27.234 37.9866 27.4962 37.9843C27.7584 37.9821 28.0092 37.8769 28.1946 37.6915C28.38 37.5061 28.4852 37.2553 28.4875 36.9931C28.4897 36.7309 28.3889 36.4783 28.2068 36.2897L22.9138 30.9967H40.4998C40.765 30.9967 41.0194 30.8913 41.2069 30.7038C41.3944 30.5162 41.4998 30.2619 41.4998 29.9967C41.4998 29.7314 41.3944 29.4771 41.2069 29.2896C41.0194 29.102 40.765 28.9967 40.4998 28.9967Z" fill="#8E2FFD"/>
</svg>
