<svg width="19" height="20" viewBox="0 0 19 20" fill="none" xmlns="http://www.w3.org/2000/svg">
<path fill-rule="evenodd" clip-rule="evenodd" d="M0 10.5568C0 11.0991 0.349532 11.5813 0.866417 11.7491L6.32906 13.5211L8.10284 18.9712C8.27017 19.4871 8.75358 19.8368 9.29649 19.8368C9.83941 19.8368 10.3228 19.4875 10.4901 18.9712L12.2676 13.5211L17.7266 11.7491C18.2435 11.5813 18.593 11.0995 18.593 10.5572C18.593 10.0145 18.2435 9.53311 17.7266 9.36533L12.2676 7.5933L10.4901 2.14321C10.3228 1.6269 9.83941 1.27761 9.29649 1.27761C8.75358 1.27761 8.27017 1.62727 8.10284 2.14321L6.32906 7.5933L0.866417 9.36533C0.349532 9.53311 0 10.0142 0 10.5568ZM2.97488 1.6488H2.23116C1.82211 1.6488 1.48744 1.98138 1.48744 2.39116C1.48744 2.80095 1.82211 3.13353 2.23116 3.13353H2.97488V3.8759C2.97488 4.28569 3.30955 4.61827 3.7186 4.61827C4.12764 4.61827 4.46232 4.28569 4.46232 3.8759V3.13353H5.20604C5.61508 3.13353 5.94976 2.80095 5.94976 2.39116C5.94976 1.98138 5.61508 1.6488 5.20604 1.6488H4.46232V0.90643C4.46232 0.496643 4.12764 0.164062 3.7186 0.164062C3.30955 0.164062 2.97488 0.496643 2.97488 0.90643V1.6488Z" fill="url(#paint0_linear_19826_31750)"/>
<path d="M14.8744 16.511H15.6181V15.7686C15.6181 15.3588 15.9528 15.0262 16.3618 15.0262C16.7709 15.0262 17.1055 15.3588 17.1055 15.7686V16.511H17.8493C18.2583 16.511 18.593 16.8435 18.593 17.2533C18.593 17.6631 18.2583 17.9957 17.8493 17.9957H17.1055V18.7381C17.1055 19.1479 16.7709 19.4804 16.3618 19.4804C15.9528 19.4804 15.6181 19.1479 15.6181 18.7381V17.9957H14.8744C14.4653 17.9957 14.1307 17.6631 14.1307 17.2533C14.1307 16.8435 14.4653 16.511 14.8744 16.511Z" fill="url(#paint1_linear_19826_31750)"/>
<defs>
<linearGradient id="paint0_linear_19826_31750" x1="0" y1="10.0004" x2="18.593" y2="10.0004" gradientUnits="userSpaceOnUse">
<stop stop-color="#D445EC"/>
<stop offset="0.27" stop-color="#B02EFB"/>
<stop offset="0.48" stop-color="#8E2FFD"/>
<stop offset="0.76" stop-color="#5E3DFE"/>
<stop offset="1" stop-color="#5186E0"/>
</linearGradient>
<linearGradient id="paint1_linear_19826_31750" x1="0" y1="10.0004" x2="18.593" y2="10.0004" gradientUnits="userSpaceOnUse">
<stop stop-color="#D445EC"/>
<stop offset="0.27" stop-color="#B02EFB"/>
<stop offset="0.48" stop-color="#8E2FFD"/>
<stop offset="0.76" stop-color="#5E3DFE"/>
<stop offset="1" stop-color="#5186E0"/>
</linearGradient>
</defs>
</svg>
