<svg width="35" height="34" viewBox="0 0 35 34" fill="none" xmlns="http://www.w3.org/2000/svg">
<rect x="0.148438" width="34" height="34" rx="17" fill="#F6F6F6"/>
<g clip-path="url(#clip0_19690_42302)">
<path d="M10.8322 24C10.6969 24 10.5647 23.9599 10.4523 23.8848C10.3399 23.8097 10.2522 23.7029 10.2005 23.578C10.1487 23.4531 10.1352 23.3156 10.1616 23.183C10.188 23.0504 10.2531 22.9285 10.3487 22.8329L22.9815 10.2001C23.1098 10.0719 23.2836 9.99988 23.465 9.99988C23.6463 9.99988 23.8202 10.0719 23.9484 10.2001C24.0766 10.3283 24.1487 10.5022 24.1487 10.6836C24.1487 10.8649 24.0766 11.0388 23.9484 11.167L11.3156 23.7998C11.2522 23.8634 11.1768 23.9138 11.0938 23.9481C11.0109 23.9825 10.922 24.0001 10.8322 24Z" fill="#585C77"/>
<path d="M23.4649 23.9998C23.3751 24 23.2862 23.9823 23.2032 23.948C23.1203 23.9136 23.0449 23.8632 22.9815 23.7997L10.3487 11.1669C10.2205 11.0387 10.1484 10.8648 10.1484 10.6834C10.1484 10.5021 10.2205 10.3282 10.3487 10.2C10.4769 10.0718 10.6508 9.99976 10.8321 9.99976C11.0134 9.99976 11.1873 10.0718 11.3156 10.2L23.9484 22.8328C24.044 22.9284 24.1091 23.0502 24.1355 23.1829C24.1619 23.3155 24.1484 23.4529 24.0966 23.5779C24.0449 23.7028 23.9572 23.8096 23.8448 23.8847C23.7323 23.9598 23.6002 23.9999 23.4649 23.9998Z" fill="#585C77"/>
</g>
<defs>
<clipPath id="clip0_19690_42302">
<rect width="14" height="14" fill="white" transform="translate(10.1484 10)"/>
</clipPath>
</defs>
</svg>
