<svg width="40" height="40" viewBox="0 0 40 40" fill="none" xmlns="http://www.w3.org/2000/svg">
<rect width="40" height="40" rx="20" fill="white" fill-opacity="0.1"/>
<g clip-path="url(#clip0_18469_17504)">
<path d="M20 30C18.3395 30 16.7051 29.5866 15.2444 28.7969C13.7836 28.0073 12.5425 26.8663 11.6331 25.477C10.7236 24.0877 10.1744 22.4937 10.0351 20.8391C9.89577 19.1844 10.1707 17.5211 10.835 15.9993C11.4993 14.4775 12.5322 13.145 13.8403 12.1222C15.1484 11.0994 16.6906 10.4184 18.3277 10.1408C19.9649 9.86313 21.6454 9.99753 23.2176 10.5318C24.7898 11.0661 26.2042 11.9836 27.3331 13.2013C27.3919 13.2608 27.4382 13.3316 27.4691 13.4094C27.5001 13.4872 27.5151 13.5705 27.5132 13.6542C27.5114 13.7379 27.4927 13.8204 27.4584 13.8967C27.424 13.9731 27.3747 14.0418 27.3133 14.0987C27.2519 14.1556 27.1796 14.1996 27.1009 14.2281C27.0222 14.2566 26.9385 14.269 26.8549 14.2645C26.7713 14.26 26.6894 14.2387 26.6142 14.202C26.5389 14.1653 26.4718 14.1138 26.4169 14.0506C25.031 12.5556 23.1666 11.5915 21.1456 11.3246C19.1246 11.0577 17.0738 11.5048 15.3474 12.5888C13.6209 13.6727 12.3271 15.3255 11.6893 17.2617C11.0515 19.1979 11.1097 21.296 11.854 23.1938C12.5983 25.0916 13.9818 26.67 15.7658 27.6565C17.5497 28.643 19.6221 28.9756 21.6252 28.597C23.6283 28.2184 25.4363 27.1522 26.7371 25.5826C28.0379 24.0131 28.7498 22.0385 28.75 20C28.75 19.8342 28.8158 19.6753 28.9331 19.5581C29.0503 19.4409 29.2092 19.375 29.375 19.375C29.5408 19.375 29.6997 19.4409 29.8169 19.5581C29.9341 19.6753 30 19.8342 30 20C29.9969 22.6512 28.9423 25.1929 27.0676 27.0676C25.1929 28.9423 22.6512 29.9969 20 30Z" fill="#585C77"/>
<path d="M26.875 14.375C26.7092 14.375 26.5503 14.3092 26.4331 14.1919C26.3158 14.0747 26.25 13.9158 26.25 13.75V10.625C26.25 10.4592 26.3158 10.3003 26.4331 10.1831C26.5503 10.0658 26.7092 10 26.875 10C27.0408 10 27.1997 10.0658 27.3169 10.1831C27.4342 10.3003 27.5 10.4592 27.5 10.625V13.75C27.5 13.9158 27.4342 14.0747 27.3169 14.1919C27.1997 14.3092 27.0408 14.375 26.875 14.375Z" fill="#585C77"/>
<path d="M26.875 14.375H23.75C23.5842 14.375 23.4253 14.3092 23.3081 14.1919C23.1908 14.0747 23.125 13.9158 23.125 13.75C23.125 13.5842 23.1908 13.4253 23.3081 13.3081C23.4253 13.1908 23.5842 13.125 23.75 13.125H26.875C27.0408 13.125 27.1997 13.1908 27.3169 13.3081C27.4342 13.4253 27.5 13.5842 27.5 13.75C27.5 13.9158 27.4342 14.0747 27.3169 14.1919C27.1997 14.3092 27.0408 14.375 26.875 14.375Z" fill="#585C77"/>
</g>
<defs>
<clipPath id="clip0_18469_17504">
<rect width="20" height="20" fill="white" transform="translate(10 10)"/>
</clipPath>
</defs>
</svg>
