<svg width="35" height="34" viewBox="0 0 35 34" fill="none" xmlns="http://www.w3.org/2000/svg">
<rect x="0.867615" width="34" height="34" rx="17" fill="url(#paint0_linear_18474_42384)"/>
<path d="M10.1404 17.765L23.7297 17.765L19.6396 21.855C19.5658 21.9263 19.5069 22.0116 19.4664 22.1059C19.4259 22.2001 19.4046 22.3015 19.4037 22.4041C19.4028 22.5067 19.4224 22.6085 19.4612 22.7035C19.5001 22.7984 19.5574 22.8847 19.63 22.9573C19.7026 23.0298 19.7888 23.0872 19.8838 23.1261C19.9788 23.1649 20.0805 23.1845 20.1831 23.1836C20.2857 23.1827 20.3871 23.1614 20.4814 23.1209C20.5757 23.0804 20.6609 23.0215 20.7322 22.9477L26.1414 17.5385C26.2862 17.3936 26.3676 17.1971 26.3676 16.9922C26.3676 16.7873 26.2862 16.5908 26.1414 16.4459L20.7322 11.0368C20.5865 10.896 20.3913 10.8181 20.1887 10.8199C19.9861 10.8216 19.7923 10.9029 19.649 11.0462C19.5057 11.1894 19.4245 11.3832 19.4227 11.5859C19.4209 11.7885 19.4988 11.9837 19.6396 12.1294L23.7297 16.2195L10.1404 16.2195C9.93541 16.2195 9.73886 16.3009 9.59394 16.4458C9.44903 16.5907 9.36762 16.7873 9.36762 16.9922C9.36762 17.1972 9.44903 17.3937 9.59394 17.5386C9.73886 17.6835 9.93541 17.765 10.1404 17.765Z" fill="white"/>
<defs>
<linearGradient id="paint0_linear_18474_42384" x1="0.867615" y1="17" x2="34.8676" y2="17" gradientUnits="userSpaceOnUse">
<stop stop-color="#D445EC"/>
<stop offset="0.27" stop-color="#B02EFB"/>
<stop offset="0.48" stop-color="#8E2FFD"/>
<stop offset="0.76" stop-color="#5E3DFE"/>
<stop offset="1" stop-color="#5186E0"/>
</linearGradient>
</defs>
</svg>
