<svg width="51" height="51" viewBox="0 0 51 51" fill="none" xmlns="http://www.w3.org/2000/svg">
<g opacity="0.4">
<path d="M21.1903 11.8469L22.47 15.401C23.8917 19.3455 26.9979 22.4517 30.9424 23.8734L34.4965 25.1531C34.8168 25.2695 34.8168 25.7237 34.4965 25.8385L30.9424 27.1182C26.9979 28.5399 23.8917 31.6461 22.47 35.5906L21.1903 39.1447C21.0739 39.465 20.6197 39.465 20.5049 39.1447L19.2252 35.5906C17.8035 31.6461 14.6973 28.5399 10.7528 27.1182L7.19872 25.8385C6.87838 25.7221 6.87838 25.2679 7.19872 25.1531L10.7528 23.8734C14.6973 22.4517 17.8035 19.3455 19.2252 15.401L20.5049 11.8469C20.6197 11.525 21.0739 11.525 21.1903 11.8469Z" fill="url(#paint0_linear_18469_17606)"/>
<path d="M37.1883 3.30671L37.837 5.10606C38.5574 7.10302 40.1304 8.67605 42.1274 9.39643L43.9267 10.0451C44.0893 10.1041 44.0893 10.3336 43.9267 10.3925L42.1274 11.0412C40.1304 11.7616 38.5574 13.3346 37.837 15.3316L37.1883 17.1309C37.1294 17.2935 36.8999 17.2935 36.8409 17.1309L36.1922 15.3316C35.4719 13.3346 33.8988 11.7616 31.9019 11.0412L30.1025 10.3925C29.94 10.3336 29.94 10.1041 30.1025 10.0451L31.9019 9.39643C33.8988 8.67605 35.4719 7.10302 36.1922 5.10606L36.8409 3.30671C36.8999 3.14255 37.131 3.14255 37.1883 3.30671Z" fill="url(#paint1_linear_18469_17606)"/>
<path d="M37.1883 33.8641L37.837 35.6635C38.5574 37.6604 40.1304 39.2335 42.1274 39.9538L43.9267 40.6025C44.0893 40.6615 44.0893 40.891 43.9267 40.9499L42.1274 41.5986C40.1304 42.319 38.5574 43.892 37.837 45.889L37.1883 47.6883C37.1294 47.8509 36.8999 47.8509 36.8409 47.6883L36.1922 45.889C35.4719 43.892 33.8988 42.319 31.9019 41.5986L30.1025 40.9499C29.94 40.891 29.94 40.6615 30.1025 40.6025L31.9019 39.9538C33.8988 39.2335 35.4719 37.6604 36.1922 35.6635L36.8409 33.8641C36.8999 33.7015 37.131 33.7015 37.1883 33.8641Z" fill="url(#paint2_linear_18469_17606)"/>
</g>
<defs>
<linearGradient id="paint0_linear_18469_17606" x1="6.95847" y1="25.4952" x2="34.7367" y2="25.4952" gradientUnits="userSpaceOnUse">
<stop stop-color="#D445EC"/>
<stop offset="0.27" stop-color="#B02EFB"/>
<stop offset="0.48" stop-color="#8E2FFD"/>
<stop offset="0.76" stop-color="#5E3DFE"/>
<stop offset="1" stop-color="#5186E0"/>
</linearGradient>
<linearGradient id="paint1_linear_18469_17606" x1="29.9806" y1="10.2182" x2="44.0486" y2="10.2182" gradientUnits="userSpaceOnUse">
<stop stop-color="#D445EC"/>
<stop offset="0.27" stop-color="#B02EFB"/>
<stop offset="0.48" stop-color="#8E2FFD"/>
<stop offset="0.76" stop-color="#5E3DFE"/>
<stop offset="1" stop-color="#5186E0"/>
</linearGradient>
<linearGradient id="paint2_linear_18469_17606" x1="29.9806" y1="40.7762" x2="44.0486" y2="40.7762" gradientUnits="userSpaceOnUse">
<stop stop-color="#D445EC"/>
<stop offset="0.27" stop-color="#B02EFB"/>
<stop offset="0.48" stop-color="#8E2FFD"/>
<stop offset="0.76" stop-color="#5E3DFE"/>
<stop offset="1" stop-color="#5186E0"/>
</linearGradient>
</defs>
</svg>
